<?xml version="1.0" encoding="UTF-8"?>
<svg xmlns="http://www.w3.org/2000/svg" xmlns:xlink="http://www.w3.org/1999/xlink" width="427.71" height="121.06" viewBox="0 0 427.71 121.06">
<defs>
<g>
<g id="glyph-0-0">
<path d="M 1.796875 -1.640625 C 1.585938 -1.640625 1.394531 -1.675781 1.21875 -1.75 C 1.039062 -1.820312 0.894531 -1.925781 0.78125 -2.0625 C 0.644531 -2.195312 0.539062 -2.347656 0.46875 -2.515625 C 0.40625 -2.691406 0.375 -2.878906 0.375 -3.078125 C 0.375 -3.273438 0.40625 -3.460938 0.46875 -3.640625 C 0.539062 -3.816406 0.644531 -3.972656 0.78125 -4.109375 C 0.894531 -4.234375 1.039062 -4.332031 1.21875 -4.40625 C 1.394531 -4.488281 1.585938 -4.53125 1.796875 -4.53125 C 2.003906 -4.53125 2.191406 -4.488281 2.359375 -4.40625 C 2.535156 -4.332031 2.691406 -4.234375 2.828125 -4.109375 C 2.953125 -3.972656 3.046875 -3.816406 3.109375 -3.640625 C 3.179688 -3.460938 3.21875 -3.273438 3.21875 -3.078125 C 3.21875 -2.878906 3.179688 -2.691406 3.109375 -2.515625 C 3.046875 -2.347656 2.953125 -2.195312 2.828125 -2.0625 C 2.691406 -1.925781 2.535156 -1.820312 2.359375 -1.75 C 2.191406 -1.675781 2.003906 -1.640625 1.796875 -1.640625 Z M 1.796875 -2.078125 C 2.085938 -2.078125 2.3125 -2.171875 2.46875 -2.359375 C 2.632812 -2.554688 2.71875 -2.796875 2.71875 -3.078125 C 2.71875 -3.359375 2.632812 -3.597656 2.46875 -3.796875 C 2.3125 -3.992188 2.085938 -4.09375 1.796875 -4.09375 C 1.503906 -4.09375 1.273438 -3.992188 1.109375 -3.796875 C 0.953125 -3.597656 0.875 -3.359375 0.875 -3.078125 C 0.875 -2.796875 0.953125 -2.554688 1.109375 -2.359375 C 1.273438 -2.171875 1.503906 -2.078125 1.796875 -2.078125 Z M 4.203125 -0.640625 L 4.203125 -4.609375 L 4.6875 -4.609375 L 4.6875 -0.640625 Z M 1.296875 0.6875 C 1.253906 0.6875 1.222656 0.675781 1.203125 0.65625 C 1.179688 0.632812 1.171875 0.597656 1.171875 0.546875 L 1.171875 -1.078125 L 1.671875 -1.078125 L 1.671875 0.265625 L 4.828125 0.265625 L 4.828125 0.6875 Z M 1.296875 0.6875 "/>
</g>
<g id="glyph-0-1">
<path d="M 0.46875 -4.296875 L 3.296875 -4.296875 L 3.296875 -3.890625 L 2.109375 -3.890625 L 2.109375 -3.359375 C 2.109375 -3.078125 2.140625 -2.816406 2.203125 -2.578125 C 2.265625 -2.335938 2.351562 -2.113281 2.46875 -1.90625 C 2.59375 -1.675781 2.75 -1.46875 2.9375 -1.28125 C 3.125 -1.09375 3.34375 -0.925781 3.59375 -0.78125 C 3.539062 -0.738281 3.476562 -0.679688 3.40625 -0.609375 C 3.34375 -0.546875 3.289062 -0.488281 3.25 -0.4375 C 3.113281 -0.53125 2.976562 -0.628906 2.84375 -0.734375 C 2.71875 -0.847656 2.597656 -0.972656 2.484375 -1.109375 C 2.359375 -1.253906 2.238281 -1.410156 2.125 -1.578125 C 2.019531 -1.753906 1.929688 -1.9375 1.859375 -2.125 C 1.804688 -1.945312 1.734375 -1.769531 1.640625 -1.59375 C 1.546875 -1.425781 1.4375 -1.265625 1.3125 -1.109375 C 1.195312 -0.941406 1.066406 -0.785156 0.921875 -0.640625 C 0.773438 -0.503906 0.632812 -0.390625 0.5 -0.296875 C 0.445312 -0.347656 0.378906 -0.398438 0.296875 -0.453125 C 0.222656 -0.515625 0.148438 -0.570312 0.078125 -0.625 C 0.316406 -0.769531 0.53125 -0.941406 0.71875 -1.140625 C 0.914062 -1.335938 1.082031 -1.554688 1.21875 -1.796875 C 1.34375 -2.023438 1.4375 -2.273438 1.5 -2.546875 C 1.570312 -2.828125 1.609375 -3.125 1.609375 -3.4375 L 1.609375 -3.890625 L 0.46875 -3.890625 Z M 4.453125 0.796875 L 3.984375 0.796875 L 3.984375 -4.609375 L 4.453125 -4.609375 L 4.453125 -2.53125 L 5.265625 -2.53125 L 5.265625 -2.109375 L 4.453125 -2.109375 Z M 4.453125 0.796875 "/>
</g>
<g id="glyph-0-2">
<path d="M 0.578125 -4.359375 L 3.21875 -4.359375 L 3.21875 -3.953125 L 2.15625 -3.953125 L 2.15625 -3.609375 C 2.15625 -3.410156 2.1875 -3.222656 2.25 -3.046875 C 2.320312 -2.878906 2.410156 -2.722656 2.515625 -2.578125 C 2.648438 -2.398438 2.8125 -2.25 3 -2.125 C 3.1875 -2 3.367188 -1.90625 3.546875 -1.84375 C 3.492188 -1.78125 3.4375 -1.710938 3.375 -1.640625 C 3.3125 -1.578125 3.265625 -1.519531 3.234375 -1.46875 C 3.128906 -1.519531 3.007812 -1.585938 2.875 -1.671875 C 2.75 -1.753906 2.625 -1.851562 2.5 -1.96875 C 2.382812 -2.0625 2.273438 -2.171875 2.171875 -2.296875 C 2.066406 -2.421875 1.976562 -2.554688 1.90625 -2.703125 C 1.851562 -2.546875 1.78125 -2.398438 1.6875 -2.265625 C 1.601562 -2.140625 1.503906 -2.019531 1.390625 -1.90625 C 1.273438 -1.78125 1.144531 -1.664062 1 -1.5625 C 0.863281 -1.46875 0.722656 -1.382812 0.578125 -1.3125 C 0.535156 -1.351562 0.472656 -1.40625 0.390625 -1.46875 C 0.316406 -1.539062 0.253906 -1.601562 0.203125 -1.65625 C 0.421875 -1.75 0.625 -1.867188 0.8125 -2.015625 C 1.007812 -2.160156 1.175781 -2.328125 1.3125 -2.515625 C 1.414062 -2.671875 1.5 -2.835938 1.5625 -3.015625 C 1.625 -3.203125 1.65625 -3.40625 1.65625 -3.625 L 1.65625 -3.953125 L 0.578125 -3.953125 Z M 4.28125 -4.609375 L 4.765625 -4.609375 L 4.765625 -0.640625 L 4.28125 -0.640625 L 4.28125 -2.90625 L 3.15625 -2.90625 L 3.15625 -3.328125 L 4.28125 -3.328125 Z M 1.390625 0.6875 C 1.347656 0.6875 1.316406 0.675781 1.296875 0.65625 C 1.273438 0.632812 1.265625 0.597656 1.265625 0.546875 L 1.265625 -1.046875 L 1.765625 -1.046875 L 1.765625 0.265625 L 4.90625 0.265625 L 4.90625 0.6875 Z M 1.390625 0.6875 "/>
</g>
<g id="glyph-0-3">
<path d="M 0.671875 -4.359375 L 3.015625 -4.359375 L 3.015625 -3.953125 L 1.015625 -3.953125 L 1.015625 -2.625 L 1.328125 -2.625 C 1.734375 -2.625 2.148438 -2.640625 2.578125 -2.671875 C 3.003906 -2.703125 3.398438 -2.753906 3.765625 -2.828125 L 3.765625 -2.4375 C 3.585938 -2.394531 3.390625 -2.359375 3.171875 -2.328125 C 2.960938 -2.304688 2.742188 -2.285156 2.515625 -2.265625 C 2.285156 -2.242188 2.050781 -2.226562 1.8125 -2.21875 C 1.570312 -2.21875 1.335938 -2.21875 1.109375 -2.21875 L 0.671875 -2.21875 C 0.617188 -2.21875 0.582031 -2.222656 0.5625 -2.234375 C 0.550781 -2.253906 0.546875 -2.285156 0.546875 -2.328125 L 0.546875 -4.234375 C 0.546875 -4.273438 0.550781 -4.304688 0.5625 -4.328125 C 0.582031 -4.347656 0.617188 -4.359375 0.671875 -4.359375 Z M 5.234375 -3.234375 L 4.484375 -3.234375 L 4.484375 -1.890625 L 4.015625 -1.890625 L 4.015625 -4.609375 L 4.484375 -4.609375 L 4.484375 -3.65625 L 5.234375 -3.65625 Z M 1.09375 -1.609375 L 4.359375 -1.609375 C 4.410156 -1.609375 4.441406 -1.597656 4.453125 -1.578125 C 4.472656 -1.554688 4.484375 -1.519531 4.484375 -1.46875 L 4.484375 -0.390625 C 4.484375 -0.335938 4.472656 -0.300781 4.453125 -0.28125 C 4.441406 -0.257812 4.410156 -0.25 4.359375 -0.25 L 1.609375 -0.25 L 1.609375 0.359375 L 4.625 0.359375 L 4.625 0.75 L 1.21875 0.75 C 1.164062 0.75 1.128906 0.738281 1.109375 0.71875 C 1.097656 0.695312 1.09375 0.660156 1.09375 0.609375 L 1.09375 -0.5 C 1.09375 -0.550781 1.097656 -0.582031 1.109375 -0.59375 C 1.128906 -0.613281 1.164062 -0.625 1.21875 -0.625 L 3.984375 -0.625 L 3.984375 -1.203125 L 1.09375 -1.203125 Z M 1.09375 -1.609375 "/>
</g>
<g id="glyph-0-4">
<path d="M 2.640625 -2.953125 C 2.890625 -2.953125 3.113281 -2.925781 3.3125 -2.875 C 3.519531 -2.832031 3.703125 -2.765625 3.859375 -2.671875 C 4.015625 -2.585938 4.132812 -2.484375 4.21875 -2.359375 C 4.300781 -2.234375 4.34375 -2.09375 4.34375 -1.9375 C 4.34375 -1.65625 4.207031 -1.425781 3.9375 -1.25 C 3.664062 -1.070312 3.320312 -0.96875 2.90625 -0.9375 L 2.90625 -0.28125 L 5.125 -0.28125 L 5.125 0.140625 L 0.171875 0.140625 L 0.171875 -0.28125 L 2.390625 -0.28125 L 2.390625 -0.9375 C 1.960938 -0.96875 1.613281 -1.070312 1.34375 -1.25 C 1.070312 -1.425781 0.9375 -1.65625 0.9375 -1.9375 C 0.9375 -2.09375 0.976562 -2.234375 1.0625 -2.359375 C 1.144531 -2.484375 1.265625 -2.585938 1.421875 -2.671875 C 1.578125 -2.765625 1.753906 -2.832031 1.953125 -2.875 C 2.160156 -2.925781 2.390625 -2.953125 2.640625 -2.953125 Z M 2.640625 -2.5625 C 2.492188 -2.5625 2.351562 -2.546875 2.21875 -2.515625 C 2.082031 -2.492188 1.960938 -2.457031 1.859375 -2.40625 C 1.753906 -2.351562 1.671875 -2.285156 1.609375 -2.203125 C 1.546875 -2.128906 1.515625 -2.039062 1.515625 -1.9375 C 1.515625 -1.832031 1.546875 -1.738281 1.609375 -1.65625 C 1.671875 -1.582031 1.753906 -1.519531 1.859375 -1.46875 C 1.960938 -1.414062 2.082031 -1.375 2.21875 -1.34375 C 2.351562 -1.320312 2.492188 -1.3125 2.640625 -1.3125 C 2.785156 -1.3125 2.925781 -1.320312 3.0625 -1.34375 C 3.195312 -1.375 3.316406 -1.414062 3.421875 -1.46875 C 3.523438 -1.519531 3.609375 -1.582031 3.671875 -1.65625 C 3.742188 -1.738281 3.78125 -1.832031 3.78125 -1.9375 C 3.78125 -2.050781 3.742188 -2.144531 3.671875 -2.21875 C 3.609375 -2.289062 3.523438 -2.351562 3.421875 -2.40625 C 3.316406 -2.46875 3.195312 -2.507812 3.0625 -2.53125 C 2.925781 -2.550781 2.785156 -2.5625 2.640625 -2.5625 Z M 3.71875 -4.046875 L 1.5625 -4.046875 L 1.5625 -4.46875 L 3.71875 -4.46875 Z M 4.6875 -3.25 L 0.59375 -3.25 L 0.59375 -3.65625 L 4.6875 -3.65625 Z M 4.6875 -3.25 "/>
</g>
<g id="glyph-0-5">
<path d="M 0.75 -3.921875 L 4.53125 -3.921875 L 4.53125 -3.578125 L 2.984375 -3.578125 C 3.046875 -3.460938 3.140625 -3.363281 3.265625 -3.28125 C 3.390625 -3.195312 3.535156 -3.128906 3.703125 -3.078125 C 3.867188 -3.023438 4.050781 -2.976562 4.25 -2.9375 C 4.445312 -2.90625 4.632812 -2.878906 4.8125 -2.859375 C 4.769531 -2.816406 4.722656 -2.757812 4.671875 -2.6875 C 4.617188 -2.613281 4.570312 -2.550781 4.53125 -2.5 C 4.375 -2.519531 4.207031 -2.550781 4.03125 -2.59375 C 3.863281 -2.632812 3.703125 -2.679688 3.546875 -2.734375 C 3.359375 -2.804688 3.1875 -2.890625 3.03125 -2.984375 C 2.875 -3.078125 2.75 -3.1875 2.65625 -3.3125 C 2.5625 -3.195312 2.445312 -3.09375 2.3125 -3 C 2.175781 -2.914062 2.03125 -2.847656 1.875 -2.796875 C 1.695312 -2.722656 1.515625 -2.660156 1.328125 -2.609375 C 1.140625 -2.566406 0.953125 -2.53125 0.765625 -2.5 C 0.710938 -2.550781 0.660156 -2.609375 0.609375 -2.671875 C 0.566406 -2.734375 0.519531 -2.796875 0.46875 -2.859375 C 0.664062 -2.878906 0.859375 -2.90625 1.046875 -2.9375 C 1.234375 -2.976562 1.410156 -3.03125 1.578125 -3.09375 C 1.742188 -3.144531 1.890625 -3.207031 2.015625 -3.28125 C 2.140625 -3.363281 2.234375 -3.460938 2.296875 -3.578125 L 0.75 -3.578125 Z M 1.65625 -4.65625 L 3.625 -4.65625 L 3.625 -4.3125 L 1.65625 -4.3125 Z M 4.453125 -1.171875 L 4.453125 -0.234375 C 4.453125 -0.191406 4.441406 -0.160156 4.421875 -0.140625 C 4.398438 -0.117188 4.367188 -0.109375 4.328125 -0.109375 L 1.359375 -0.109375 L 1.359375 0.390625 L 4.578125 0.390625 L 4.578125 0.75 L 0.96875 0.75 C 0.914062 0.75 0.878906 0.738281 0.859375 0.71875 C 0.847656 0.695312 0.84375 0.660156 0.84375 0.609375 L 0.84375 -0.328125 C 0.84375 -0.367188 0.847656 -0.398438 0.859375 -0.421875 C 0.878906 -0.441406 0.914062 -0.453125 0.96875 -0.453125 L 3.953125 -0.453125 L 3.953125 -0.9375 L 0.84375 -0.9375 L 0.84375 -1.296875 L 2.390625 -1.296875 L 2.390625 -1.84375 L 0.171875 -1.84375 L 0.171875 -2.203125 L 5.125 -2.203125 L 5.125 -1.84375 L 2.890625 -1.84375 L 2.890625 -1.296875 L 4.328125 -1.296875 C 4.367188 -1.296875 4.398438 -1.285156 4.421875 -1.265625 C 4.441406 -1.253906 4.453125 -1.222656 4.453125 -1.171875 Z M 4.453125 -1.171875 "/>
</g>
<g id="glyph-0-6">
<path d="M 1.765625 -2.5 C 1.660156 -2.5 1.554688 -2.476562 1.453125 -2.4375 C 1.347656 -2.40625 1.257812 -2.351562 1.1875 -2.28125 C 1.101562 -2.207031 1.035156 -2.109375 0.984375 -1.984375 C 0.941406 -1.867188 0.921875 -1.734375 0.921875 -1.578125 L 0.921875 0.21875 L 0.46875 0.21875 L 0.46875 -2.875 L 0.9375 -2.875 L 0.921875 -2.46875 C 1.046875 -2.65625 1.171875 -2.785156 1.296875 -2.859375 C 1.429688 -2.929688 1.582031 -2.96875 1.75 -2.96875 C 1.789062 -2.96875 1.835938 -2.960938 1.890625 -2.953125 C 1.941406 -2.953125 1.988281 -2.945312 2.03125 -2.9375 L 2.03125 -2.453125 C 1.976562 -2.460938 1.929688 -2.472656 1.890625 -2.484375 C 1.859375 -2.492188 1.816406 -2.5 1.765625 -2.5 Z M 1.765625 -2.5 "/>
</g>
<g id="glyph-0-7">
<path d="M 3.15625 -2.84375 L 3.15625 -2.40625 L 0.421875 -2.40625 L 0.421875 -2.84375 Z M 3.15625 -1.625 L 3.15625 -1.1875 L 0.421875 -1.1875 L 0.421875 -1.625 Z M 3.15625 -1.625 "/>
</g>
<g id="glyph-0-8">
<path d="M 1.171875 0.21875 L 0.734375 0.21875 L 0.734375 -2.484375 L 0.109375 -2.484375 L 0.109375 -2.875 L 0.734375 -2.875 L 0.734375 -3.625 C 0.734375 -3.789062 0.75 -3.925781 0.78125 -4.03125 C 0.820312 -4.132812 0.875 -4.210938 0.9375 -4.265625 C 1.007812 -4.328125 1.09375 -4.367188 1.1875 -4.390625 C 1.28125 -4.421875 1.382812 -4.4375 1.5 -4.4375 C 1.5625 -4.4375 1.625 -4.425781 1.6875 -4.40625 C 1.757812 -4.394531 1.832031 -4.382812 1.90625 -4.375 L 1.90625 -3.984375 C 1.851562 -4.003906 1.800781 -4.019531 1.75 -4.03125 C 1.695312 -4.039062 1.632812 -4.046875 1.5625 -4.046875 C 1.445312 -4.046875 1.351562 -4.015625 1.28125 -3.953125 C 1.207031 -3.890625 1.171875 -3.765625 1.171875 -3.578125 L 1.171875 -2.875 L 1.859375 -2.875 L 1.859375 -2.484375 L 1.171875 -2.484375 Z M 1.171875 0.21875 "/>
</g>
<g id="glyph-0-9">
<path d="M 2.640625 -1.328125 C 2.640625 -1.460938 2.617188 -1.601562 2.578125 -1.75 C 2.535156 -1.90625 2.476562 -2.039062 2.40625 -2.15625 C 2.332031 -2.28125 2.234375 -2.378906 2.109375 -2.453125 C 1.984375 -2.535156 1.835938 -2.578125 1.671875 -2.578125 C 1.492188 -2.578125 1.34375 -2.535156 1.21875 -2.453125 C 1.101562 -2.378906 1.007812 -2.28125 0.9375 -2.15625 C 0.851562 -2.039062 0.796875 -1.90625 0.765625 -1.75 C 0.734375 -1.601562 0.71875 -1.460938 0.71875 -1.328125 C 0.71875 -1.179688 0.734375 -1.03125 0.765625 -0.875 C 0.796875 -0.726562 0.851562 -0.59375 0.9375 -0.46875 C 1.007812 -0.351562 1.101562 -0.257812 1.21875 -0.1875 C 1.34375 -0.113281 1.492188 -0.078125 1.671875 -0.078125 C 1.835938 -0.078125 1.984375 -0.113281 2.109375 -0.1875 C 2.234375 -0.257812 2.332031 -0.351562 2.40625 -0.46875 C 2.476562 -0.59375 2.535156 -0.726562 2.578125 -0.875 C 2.617188 -1.03125 2.640625 -1.179688 2.640625 -1.328125 Z M 1.671875 -2.96875 C 1.921875 -2.96875 2.132812 -2.921875 2.3125 -2.828125 C 2.5 -2.734375 2.65625 -2.609375 2.78125 -2.453125 C 2.90625 -2.296875 2.992188 -2.117188 3.046875 -1.921875 C 3.109375 -1.734375 3.140625 -1.535156 3.140625 -1.328125 C 3.140625 -1.109375 3.109375 -0.898438 3.046875 -0.703125 C 2.992188 -0.515625 2.90625 -0.34375 2.78125 -0.1875 C 2.65625 -0.03125 2.5 0.09375 2.3125 0.1875 C 2.132812 0.28125 1.921875 0.328125 1.671875 0.328125 C 1.421875 0.328125 1.203125 0.28125 1.015625 0.1875 C 0.835938 0.09375 0.6875 -0.03125 0.5625 -0.1875 C 0.445312 -0.34375 0.359375 -0.515625 0.296875 -0.703125 C 0.242188 -0.898438 0.21875 -1.109375 0.21875 -1.328125 C 0.21875 -1.535156 0.242188 -1.734375 0.296875 -1.921875 C 0.359375 -2.117188 0.445312 -2.296875 0.5625 -2.453125 C 0.6875 -2.609375 0.835938 -2.734375 1.015625 -2.828125 C 1.203125 -2.921875 1.421875 -2.96875 1.671875 -2.96875 Z M 1.671875 -2.96875 "/>
</g>
<g id="glyph-0-10">
<path d="M 0.359375 -1.9375 C 0.359375 -2.1875 0.382812 -2.441406 0.4375 -2.703125 C 0.5 -2.960938 0.582031 -3.21875 0.6875 -3.46875 C 0.789062 -3.71875 0.914062 -3.960938 1.0625 -4.203125 C 1.21875 -4.441406 1.394531 -4.660156 1.59375 -4.859375 L 1.96875 -4.859375 C 1.601562 -4.390625 1.332031 -3.898438 1.15625 -3.390625 C 0.988281 -2.890625 0.90625 -2.40625 0.90625 -1.9375 C 0.90625 -1.457031 0.988281 -0.96875 1.15625 -0.46875 C 1.332031 0.03125 1.601562 0.515625 1.96875 0.984375 L 1.59375 0.984375 C 1.394531 0.785156 1.21875 0.566406 1.0625 0.328125 C 0.914062 0.0976562 0.789062 -0.144531 0.6875 -0.40625 C 0.582031 -0.65625 0.5 -0.910156 0.4375 -1.171875 C 0.382812 -1.429688 0.359375 -1.6875 0.359375 -1.9375 Z M 0.359375 -1.9375 "/>
</g>
<g id="glyph-0-11">
<path d="M 2.609375 -1.03125 C 2.609375 -1.1875 2.578125 -1.316406 2.515625 -1.421875 C 2.460938 -1.523438 2.390625 -1.613281 2.296875 -1.6875 C 2.203125 -1.757812 2.09375 -1.8125 1.96875 -1.84375 C 1.851562 -1.875 1.734375 -1.894531 1.609375 -1.90625 L 1.359375 -1.90625 C 1.304688 -1.90625 1.273438 -1.910156 1.265625 -1.921875 C 1.265625 -1.929688 1.265625 -1.957031 1.265625 -2 L 1.265625 -2.21875 C 1.265625 -2.269531 1.265625 -2.300781 1.265625 -2.3125 C 1.273438 -2.332031 1.304688 -2.34375 1.359375 -2.34375 L 1.5625 -2.34375 C 1.6875 -2.34375 1.804688 -2.359375 1.921875 -2.390625 C 2.035156 -2.421875 2.132812 -2.46875 2.21875 -2.53125 C 2.3125 -2.59375 2.382812 -2.671875 2.4375 -2.765625 C 2.488281 -2.867188 2.515625 -2.992188 2.515625 -3.140625 C 2.515625 -3.390625 2.425781 -3.582031 2.25 -3.71875 C 2.082031 -3.863281 1.875 -3.9375 1.625 -3.9375 C 1.351562 -3.9375 1.140625 -3.863281 0.984375 -3.71875 C 0.835938 -3.582031 0.753906 -3.382812 0.734375 -3.125 L 0.25 -3.125 C 0.25 -3.507812 0.375 -3.8125 0.625 -4.03125 C 0.882812 -4.25 1.222656 -4.359375 1.640625 -4.359375 C 1.816406 -4.359375 1.988281 -4.332031 2.15625 -4.28125 C 2.320312 -4.238281 2.46875 -4.171875 2.59375 -4.078125 C 2.707031 -3.972656 2.800781 -3.84375 2.875 -3.6875 C 2.957031 -3.539062 3 -3.363281 3 -3.15625 C 3 -2.90625 2.914062 -2.679688 2.75 -2.484375 C 2.582031 -2.285156 2.363281 -2.160156 2.09375 -2.109375 C 2.394531 -2.066406 2.632812 -1.941406 2.8125 -1.734375 C 3 -1.523438 3.09375 -1.273438 3.09375 -0.984375 C 3.09375 -0.753906 3.050781 -0.554688 2.96875 -0.390625 C 2.882812 -0.234375 2.773438 -0.101562 2.640625 0 C 2.503906 0.101562 2.34375 0.175781 2.15625 0.21875 C 1.976562 0.269531 1.796875 0.296875 1.609375 0.296875 C 1.171875 0.296875 0.820312 0.179688 0.5625 -0.046875 C 0.3125 -0.273438 0.1875 -0.597656 0.1875 -1.015625 L 0.671875 -1.015625 C 0.691406 -0.722656 0.785156 -0.5 0.953125 -0.34375 C 1.117188 -0.195312 1.347656 -0.125 1.640625 -0.125 C 1.929688 -0.125 2.164062 -0.203125 2.34375 -0.359375 C 2.519531 -0.515625 2.609375 -0.738281 2.609375 -1.03125 Z M 2.609375 -1.03125 "/>
</g>
<g id="glyph-0-12">
<path d="M 1.25 0.171875 C 1.25 0.460938 1.1875 0.679688 1.0625 0.828125 C 0.9375 0.972656 0.785156 1.0625 0.609375 1.09375 L 0.609375 0.875 C 0.703125 0.851562 0.769531 0.785156 0.8125 0.671875 C 0.863281 0.554688 0.878906 0.441406 0.859375 0.328125 L 0.546875 0.328125 L 0.546875 -0.296875 L 1.171875 -0.296875 C 1.203125 -0.296875 1.222656 -0.285156 1.234375 -0.265625 C 1.242188 -0.253906 1.25 -0.238281 1.25 -0.21875 Z M 1.25 0.171875 "/>
</g>
<g id="glyph-0-13">
<path d="M 2.140625 -3.21875 L 2.15625 -3.78125 L 0.578125 -1.203125 L 2.140625 -1.203125 Z M 0.171875 -1.328125 L 1.953125 -4.234375 C 1.960938 -4.265625 1.976562 -4.285156 2 -4.296875 C 2.019531 -4.316406 2.046875 -4.328125 2.078125 -4.328125 L 2.484375 -4.328125 C 2.523438 -4.328125 2.554688 -4.316406 2.578125 -4.296875 C 2.597656 -4.273438 2.609375 -4.242188 2.609375 -4.203125 L 2.609375 -1.203125 L 3.265625 -1.203125 L 3.265625 -0.78125 L 2.609375 -0.78125 L 2.609375 0.1875 L 2.125 0.1875 L 2.125 -0.78125 L 0.234375 -0.78125 C 0.191406 -0.78125 0.160156 -0.785156 0.140625 -0.796875 C 0.117188 -0.816406 0.109375 -0.847656 0.109375 -0.890625 L 0.109375 -1.15625 C 0.109375 -1.175781 0.113281 -1.203125 0.125 -1.234375 C 0.132812 -1.265625 0.148438 -1.296875 0.171875 -1.328125 Z M 0.171875 -1.328125 "/>
</g>
<g id="glyph-0-14">
<path d="M 1.59375 -1.9375 C 1.59375 -1.6875 1.5625 -1.429688 1.5 -1.171875 C 1.445312 -0.910156 1.367188 -0.65625 1.265625 -0.40625 C 1.160156 -0.144531 1.03125 0.0976562 0.875 0.328125 C 0.71875 0.566406 0.546875 0.785156 0.359375 0.984375 L 0 0.984375 C 0.351562 0.515625 0.613281 0.03125 0.78125 -0.46875 C 0.957031 -0.96875 1.046875 -1.457031 1.046875 -1.9375 C 1.046875 -2.40625 0.957031 -2.890625 0.78125 -3.390625 C 0.613281 -3.898438 0.351562 -4.390625 0 -4.859375 L 0.359375 -4.859375 C 0.546875 -4.660156 0.71875 -4.441406 0.875 -4.203125 C 1.03125 -3.960938 1.160156 -3.71875 1.265625 -3.46875 C 1.367188 -3.21875 1.445312 -2.960938 1.5 -2.703125 C 1.5625 -2.441406 1.59375 -2.1875 1.59375 -1.9375 Z M 1.59375 -1.9375 "/>
</g>
<g id="glyph-0-15">
<path d="M 1.046875 -1 L 2.046875 -1 L 2.046875 -3.84375 L 1.046875 -3.84375 Z M 0.703125 -4.25 L 2.375 -4.25 C 2.425781 -4.25 2.460938 -4.238281 2.484375 -4.21875 C 2.503906 -4.207031 2.515625 -4.175781 2.515625 -4.125 L 2.515625 -0.71875 C 2.515625 -0.664062 2.503906 -0.628906 2.484375 -0.609375 C 2.460938 -0.597656 2.425781 -0.59375 2.375 -0.59375 L 0.703125 -0.59375 C 0.660156 -0.59375 0.628906 -0.597656 0.609375 -0.609375 C 0.585938 -0.628906 0.578125 -0.664062 0.578125 -0.71875 L 0.578125 -4.125 C 0.578125 -4.175781 0.585938 -4.207031 0.609375 -4.21875 C 0.628906 -4.238281 0.660156 -4.25 0.703125 -4.25 Z M 3.578125 -4.515625 L 3.578125 -2.765625 L 4.28125 -2.765625 L 4.28125 -4.609375 L 4.75 -4.609375 L 4.75 0.796875 L 4.28125 0.796875 L 4.28125 -2.296875 L 3.578125 -2.296875 L 3.578125 0.53125 L 3.109375 0.53125 L 3.109375 -4.515625 Z M 3.578125 -4.515625 "/>
</g>
<g id="glyph-0-16">
<path d="M 2.328125 -4.25 C 2.378906 -4.25 2.414062 -4.238281 2.4375 -4.21875 C 2.457031 -4.195312 2.46875 -4.164062 2.46875 -4.125 C 2.445312 -3.707031 2.394531 -3.320312 2.3125 -2.96875 C 2.238281 -2.625 2.128906 -2.300781 1.984375 -2 C 1.828125 -1.695312 1.632812 -1.410156 1.40625 -1.140625 C 1.175781 -0.878906 0.898438 -0.628906 0.578125 -0.390625 L 0.1875 -0.6875 C 0.738281 -1.050781 1.171875 -1.503906 1.484375 -2.046875 C 1.796875 -2.585938 1.957031 -3.1875 1.96875 -3.84375 L 0.5 -3.84375 L 0.5 -4.25 Z M 3.546875 -4.515625 L 3.546875 -2.625 L 4.265625 -2.625 L 4.265625 -4.609375 L 4.734375 -4.609375 L 4.734375 0.796875 L 4.265625 0.796875 L 4.265625 -2.15625 L 3.546875 -2.15625 L 3.546875 0.546875 L 3.078125 0.546875 L 3.078125 -4.515625 Z M 3.546875 -4.515625 "/>
</g>
<g id="glyph-0-17">
<path d="M 1.0625 -1.984375 L 2.578125 -1.984375 L 2.578125 -3.0625 L 1.0625 -3.0625 Z M 3.015625 -1.703125 C 3.015625 -1.648438 3.003906 -1.613281 2.984375 -1.59375 C 2.960938 -1.582031 2.925781 -1.578125 2.875 -1.578125 L 0.71875 -1.578125 C 0.664062 -1.578125 0.628906 -1.582031 0.609375 -1.59375 C 0.597656 -1.613281 0.59375 -1.648438 0.59375 -1.703125 L 0.59375 -4.421875 L 1.0625 -4.421875 L 1.0625 -3.46875 L 2.578125 -3.46875 L 2.578125 -4.421875 L 3.046875 -4.421875 L 3.046875 -3.78125 L 4.203125 -3.78125 L 4.203125 -4.59375 L 4.6875 -4.59375 L 4.6875 -0.65625 L 4.203125 -0.65625 L 4.203125 -2.234375 L 3.015625 -2.234375 Z M 3.015625 -3.375 L 3.015625 -2.625 L 4.203125 -2.625 L 4.203125 -3.375 Z M 1.296875 0.6875 C 1.253906 0.6875 1.222656 0.675781 1.203125 0.65625 C 1.179688 0.632812 1.171875 0.597656 1.171875 0.546875 L 1.171875 -0.984375 L 1.671875 -0.984375 L 1.671875 0.265625 L 4.8125 0.265625 L 4.8125 0.6875 Z M 1.296875 0.6875 "/>
</g>
<g id="glyph-0-18">
<path d="M 0.40625 -2.59375 C 1.0625 -2.75 1.550781 -2.957031 1.875 -3.21875 C 2.207031 -3.488281 2.375 -3.8125 2.375 -4.1875 L 2.375 -4.484375 L 2.90625 -4.484375 L 2.90625 -4.203125 C 2.90625 -3.984375 2.957031 -3.785156 3.0625 -3.609375 C 3.175781 -3.429688 3.328125 -3.28125 3.515625 -3.15625 C 3.703125 -3.019531 3.910156 -2.90625 4.140625 -2.8125 C 4.378906 -2.71875 4.625 -2.644531 4.875 -2.59375 L 4.5625 -2.21875 C 4.375 -2.257812 4.179688 -2.316406 3.984375 -2.390625 C 3.785156 -2.472656 3.597656 -2.570312 3.421875 -2.6875 C 3.242188 -2.800781 3.085938 -2.921875 2.953125 -3.046875 C 2.816406 -3.179688 2.71875 -3.332031 2.65625 -3.5 C 2.5625 -3.320312 2.445312 -3.164062 2.3125 -3.03125 C 2.175781 -2.894531 2.019531 -2.78125 1.84375 -2.6875 C 1.675781 -2.570312 1.5 -2.476562 1.3125 -2.40625 C 1.125 -2.332031 0.929688 -2.269531 0.734375 -2.21875 Z M 5.125 -1.203125 L 2.90625 -1.203125 L 2.90625 0.796875 L 2.421875 0.796875 L 2.421875 -1.203125 L 0.171875 -1.203125 L 0.171875 -1.625 L 5.125 -1.625 Z M 5.125 -1.203125 "/>
</g>
<g id="glyph-0-19">
<path d="M 0.375 -3.953125 L 3.46875 -3.953125 L 3.46875 -3.59375 L 0.375 -3.59375 Z M 2.703125 -4.28125 L 1.109375 -4.28125 L 1.109375 -4.640625 L 2.703125 -4.640625 Z M 1.90625 -3.375 C 2.3125 -3.375 2.632812 -3.289062 2.875 -3.125 C 3.125 -2.96875 3.25 -2.765625 3.25 -2.515625 C 3.25 -2.273438 3.125 -2.078125 2.875 -1.921875 C 2.625 -1.765625 2.300781 -1.6875 1.90625 -1.6875 C 1.507812 -1.6875 1.1875 -1.765625 0.9375 -1.921875 C 0.695312 -2.078125 0.578125 -2.273438 0.578125 -2.515625 C 0.578125 -2.765625 0.695312 -2.96875 0.9375 -3.125 C 1.175781 -3.289062 1.5 -3.375 1.90625 -3.375 Z M 1.90625 -3.03125 C 1.644531 -3.03125 1.4375 -2.984375 1.28125 -2.890625 C 1.132812 -2.796875 1.0625 -2.671875 1.0625 -2.515625 C 1.0625 -2.367188 1.132812 -2.242188 1.28125 -2.140625 C 1.4375 -2.046875 1.644531 -2 1.90625 -2 C 2.175781 -2 2.382812 -2.046875 2.53125 -2.140625 C 2.6875 -2.242188 2.765625 -2.367188 2.765625 -2.515625 C 2.765625 -2.671875 2.6875 -2.796875 2.53125 -2.890625 C 2.382812 -2.984375 2.175781 -3.03125 1.90625 -3.03125 Z M 5.296875 -2.90625 L 4.546875 -2.90625 L 4.546875 -1.5625 L 4.078125 -1.5625 L 4.078125 -4.609375 L 4.546875 -4.609375 L 4.546875 -3.328125 L 5.296875 -3.328125 Z M 4.421875 -0.09375 L 1.65625 -0.09375 L 1.65625 0.359375 L 4.6875 0.359375 L 4.6875 0.75 L 1.28125 0.75 C 1.226562 0.75 1.191406 0.738281 1.171875 0.71875 C 1.160156 0.695312 1.15625 0.660156 1.15625 0.609375 L 1.15625 -0.328125 C 1.15625 -0.378906 1.160156 -0.410156 1.171875 -0.421875 C 1.191406 -0.441406 1.226562 -0.453125 1.28125 -0.453125 L 4.046875 -0.453125 L 4.046875 -0.890625 L 1.15625 -0.890625 L 1.15625 -1.28125 L 4.421875 -1.28125 C 4.472656 -1.28125 4.503906 -1.269531 4.515625 -1.25 C 4.535156 -1.238281 4.546875 -1.207031 4.546875 -1.15625 L 4.546875 -0.21875 C 4.546875 -0.175781 4.535156 -0.144531 4.515625 -0.125 C 4.503906 -0.101562 4.472656 -0.09375 4.421875 -0.09375 Z M 4.421875 -0.09375 "/>
</g>
<g id="glyph-0-20">
<path d="M 0.671875 -4.359375 L 3.015625 -4.359375 L 3.015625 -3.9375 L 1.015625 -3.9375 L 1.015625 -2.40625 L 1.3125 -2.40625 C 1.71875 -2.40625 2.132812 -2.421875 2.5625 -2.453125 C 3 -2.484375 3.398438 -2.535156 3.765625 -2.609375 L 3.765625 -2.1875 C 3.578125 -2.144531 3.378906 -2.109375 3.171875 -2.078125 C 2.960938 -2.054688 2.742188 -2.035156 2.515625 -2.015625 C 2.273438 -2.003906 2.035156 -1.992188 1.796875 -1.984375 C 1.554688 -1.972656 1.320312 -1.96875 1.09375 -1.96875 L 0.671875 -1.96875 C 0.617188 -1.96875 0.582031 -1.972656 0.5625 -1.984375 C 0.550781 -2.003906 0.546875 -2.039062 0.546875 -2.09375 L 0.546875 -4.234375 C 0.546875 -4.273438 0.550781 -4.304688 0.5625 -4.328125 C 0.582031 -4.347656 0.617188 -4.359375 0.671875 -4.359375 Z M 4.484375 -4.59375 L 4.484375 -3.546875 L 5.234375 -3.546875 L 5.234375 -3.125 L 4.484375 -3.125 L 4.484375 -1.390625 L 4.015625 -1.390625 L 4.015625 -4.59375 Z M 2.78125 0.890625 C 2.5 0.890625 2.242188 0.863281 2.015625 0.8125 C 1.796875 0.757812 1.609375 0.6875 1.453125 0.59375 C 1.285156 0.488281 1.160156 0.367188 1.078125 0.234375 C 0.992188 0.0976562 0.953125 -0.0507812 0.953125 -0.21875 C 0.953125 -0.375 0.992188 -0.519531 1.078125 -0.65625 C 1.171875 -0.789062 1.296875 -0.910156 1.453125 -1.015625 C 1.617188 -1.109375 1.8125 -1.179688 2.03125 -1.234375 C 2.257812 -1.296875 2.507812 -1.328125 2.78125 -1.328125 C 3.0625 -1.328125 3.3125 -1.296875 3.53125 -1.234375 C 3.757812 -1.179688 3.957031 -1.109375 4.125 -1.015625 C 4.289062 -0.910156 4.414062 -0.789062 4.5 -0.65625 C 4.582031 -0.519531 4.625 -0.375 4.625 -0.21875 C 4.625 0.125 4.457031 0.394531 4.125 0.59375 C 3.789062 0.789062 3.34375 0.890625 2.78125 0.890625 Z M 1.46875 -0.21875 C 1.46875 -0.101562 1.5 -0.00390625 1.5625 0.078125 C 1.625 0.171875 1.71875 0.25 1.84375 0.3125 C 1.957031 0.382812 2.09375 0.4375 2.25 0.46875 C 2.414062 0.5 2.59375 0.515625 2.78125 0.515625 C 2.976562 0.515625 3.15625 0.5 3.3125 0.46875 C 3.476562 0.4375 3.617188 0.382812 3.734375 0.3125 C 3.859375 0.25 3.953125 0.171875 4.015625 0.078125 C 4.085938 -0.00390625 4.125 -0.0976562 4.125 -0.203125 C 4.125 -0.421875 3.992188 -0.59375 3.734375 -0.71875 C 3.484375 -0.851562 3.164062 -0.921875 2.78125 -0.921875 C 2.59375 -0.921875 2.414062 -0.90625 2.25 -0.875 C 2.09375 -0.84375 1.957031 -0.796875 1.84375 -0.734375 C 1.71875 -0.671875 1.625 -0.59375 1.5625 -0.5 C 1.5 -0.414062 1.46875 -0.320312 1.46875 -0.21875 Z M 1.46875 -0.21875 "/>
</g>
<g id="glyph-0-21">
<path d="M 1.65625 -2.578125 C 1.5 -2.578125 1.363281 -2.539062 1.25 -2.46875 C 1.132812 -2.40625 1.046875 -2.316406 0.984375 -2.203125 C 0.910156 -2.085938 0.859375 -1.957031 0.828125 -1.8125 C 0.796875 -1.664062 0.78125 -1.515625 0.78125 -1.359375 C 0.78125 -1.210938 0.789062 -1.0625 0.8125 -0.90625 C 0.84375 -0.757812 0.890625 -0.625 0.953125 -0.5 C 1.015625 -0.375 1.097656 -0.269531 1.203125 -0.1875 C 1.316406 -0.113281 1.457031 -0.078125 1.625 -0.078125 C 1.800781 -0.078125 1.953125 -0.109375 2.078125 -0.171875 C 2.203125 -0.242188 2.300781 -0.335938 2.375 -0.453125 C 2.457031 -0.578125 2.515625 -0.71875 2.546875 -0.875 C 2.578125 -1.03125 2.59375 -1.203125 2.59375 -1.390625 C 2.59375 -1.546875 2.570312 -1.691406 2.53125 -1.828125 C 2.5 -1.972656 2.445312 -2.101562 2.375 -2.21875 C 2.300781 -2.320312 2.203125 -2.40625 2.078125 -2.46875 C 1.960938 -2.539062 1.820312 -2.578125 1.65625 -2.578125 Z M 2.59375 -0.15625 C 2.476562 -0.0078125 2.34375 0.101562 2.1875 0.1875 C 2.039062 0.28125 1.84375 0.328125 1.59375 0.328125 C 1.363281 0.328125 1.164062 0.28125 1 0.1875 C 0.832031 0.101562 0.695312 -0.015625 0.59375 -0.171875 C 0.488281 -0.328125 0.410156 -0.503906 0.359375 -0.703125 C 0.304688 -0.898438 0.28125 -1.109375 0.28125 -1.328125 C 0.28125 -1.546875 0.300781 -1.753906 0.34375 -1.953125 C 0.394531 -2.148438 0.472656 -2.320312 0.578125 -2.46875 C 0.679688 -2.613281 0.816406 -2.734375 0.984375 -2.828125 C 1.148438 -2.921875 1.351562 -2.96875 1.59375 -2.96875 C 1.78125 -2.96875 1.960938 -2.925781 2.140625 -2.84375 C 2.328125 -2.757812 2.472656 -2.628906 2.578125 -2.453125 L 2.578125 -4.34375 L 3.015625 -4.34375 L 3.015625 -0.328125 C 3.015625 -0.242188 3.015625 -0.148438 3.015625 -0.046875 C 3.023438 0.0546875 3.039062 0.144531 3.0625 0.21875 L 2.609375 0.21875 Z M 2.59375 -0.15625 "/>
</g>
<g id="glyph-0-22">
<path d="M 0.796875 -1.609375 L 2.609375 -1.609375 C 2.585938 -1.890625 2.5 -2.117188 2.34375 -2.296875 C 2.195312 -2.484375 1.976562 -2.578125 1.6875 -2.578125 C 1.40625 -2.578125 1.191406 -2.476562 1.046875 -2.28125 C 0.898438 -2.09375 0.816406 -1.867188 0.796875 -1.609375 Z M 3.109375 -1.328125 C 3.109375 -1.285156 3.097656 -1.253906 3.078125 -1.234375 C 3.054688 -1.222656 3.03125 -1.21875 3 -1.21875 L 0.78125 -1.21875 C 0.78125 -1.050781 0.796875 -0.894531 0.828125 -0.75 C 0.867188 -0.613281 0.925781 -0.5 1 -0.40625 C 1.082031 -0.300781 1.1875 -0.21875 1.3125 -0.15625 C 1.4375 -0.101562 1.585938 -0.078125 1.765625 -0.078125 C 1.960938 -0.078125 2.128906 -0.140625 2.265625 -0.265625 C 2.410156 -0.398438 2.515625 -0.578125 2.578125 -0.796875 L 3.078125 -0.796875 C 2.984375 -0.410156 2.816406 -0.128906 2.578125 0.046875 C 2.335938 0.234375 2.023438 0.328125 1.640625 0.328125 C 1.410156 0.328125 1.207031 0.28125 1.03125 0.1875 C 0.863281 0.101562 0.722656 -0.015625 0.609375 -0.171875 C 0.492188 -0.328125 0.410156 -0.503906 0.359375 -0.703125 C 0.304688 -0.898438 0.28125 -1.109375 0.28125 -1.328125 C 0.28125 -1.535156 0.304688 -1.738281 0.359375 -1.9375 C 0.421875 -2.132812 0.507812 -2.3125 0.625 -2.46875 C 0.738281 -2.613281 0.882812 -2.734375 1.0625 -2.828125 C 1.238281 -2.921875 1.441406 -2.96875 1.671875 -2.96875 C 1.921875 -2.96875 2.132812 -2.925781 2.3125 -2.84375 C 2.5 -2.757812 2.648438 -2.644531 2.765625 -2.5 C 2.878906 -2.351562 2.960938 -2.179688 3.015625 -1.984375 C 3.078125 -1.785156 3.109375 -1.566406 3.109375 -1.328125 Z M 3.109375 -1.328125 "/>
</g>
<g id="glyph-0-23">
<path d="M 2.40625 -1.703125 C 2.40625 -2.003906 2.351562 -2.222656 2.25 -2.359375 C 2.144531 -2.503906 1.96875 -2.578125 1.71875 -2.578125 C 1.625 -2.578125 1.523438 -2.554688 1.421875 -2.515625 C 1.328125 -2.472656 1.242188 -2.410156 1.171875 -2.328125 C 1.085938 -2.234375 1.023438 -2.125 0.984375 -2 C 0.941406 -1.875 0.921875 -1.734375 0.921875 -1.578125 L 0.921875 0.21875 L 0.484375 0.21875 L 0.484375 -2.875 L 0.9375 -2.875 L 0.921875 -2.46875 C 1.066406 -2.65625 1.210938 -2.785156 1.359375 -2.859375 C 1.503906 -2.929688 1.675781 -2.96875 1.875 -2.96875 C 2.101562 -2.96875 2.296875 -2.914062 2.453125 -2.8125 C 2.609375 -2.707031 2.71875 -2.554688 2.78125 -2.359375 L 2.828125 -2.46875 C 2.960938 -2.65625 3.109375 -2.785156 3.265625 -2.859375 C 3.421875 -2.929688 3.59375 -2.96875 3.78125 -2.96875 C 4.113281 -2.96875 4.359375 -2.867188 4.515625 -2.671875 C 4.679688 -2.472656 4.765625 -2.191406 4.765625 -1.828125 L 4.765625 0.21875 L 4.3125 0.21875 L 4.3125 -1.703125 C 4.3125 -2.003906 4.257812 -2.222656 4.15625 -2.359375 C 4.050781 -2.503906 3.875 -2.578125 3.625 -2.578125 C 3.457031 -2.578125 3.296875 -2.507812 3.140625 -2.375 C 2.984375 -2.238281 2.890625 -2.035156 2.859375 -1.765625 L 2.859375 0.21875 L 2.40625 0.21875 Z M 2.40625 -1.703125 "/>
</g>
<g id="glyph-0-24">
<path d="M 0.9375 -2.875 L 0.9375 -2.46875 C 1.070312 -2.65625 1.21875 -2.785156 1.375 -2.859375 C 1.539062 -2.929688 1.722656 -2.96875 1.921875 -2.96875 C 2.265625 -2.96875 2.519531 -2.867188 2.6875 -2.671875 C 2.863281 -2.472656 2.953125 -2.191406 2.953125 -1.828125 L 2.953125 0.21875 L 2.484375 0.21875 L 2.484375 -1.703125 C 2.484375 -2.003906 2.425781 -2.222656 2.3125 -2.359375 C 2.207031 -2.503906 2.023438 -2.578125 1.765625 -2.578125 C 1.660156 -2.578125 1.554688 -2.554688 1.453125 -2.515625 C 1.359375 -2.472656 1.269531 -2.410156 1.1875 -2.328125 C 1.113281 -2.234375 1.050781 -2.125 1 -2 C 0.957031 -1.875 0.9375 -1.734375 0.9375 -1.578125 L 0.9375 0.21875 L 0.5 0.21875 L 0.5 -2.875 Z M 0.9375 -2.875 "/>
</g>
<g id="glyph-0-25">
<path d="M 0.375 -3.90625 L 3.46875 -3.90625 L 3.46875 -3.53125 L 0.375 -3.53125 Z M 2.703125 -4.234375 L 1.109375 -4.234375 L 1.109375 -4.625 L 2.703125 -4.625 Z M 1.90625 -3.296875 C 2.3125 -3.296875 2.632812 -3.210938 2.875 -3.046875 C 3.125 -2.878906 3.25 -2.65625 3.25 -2.375 C 3.25 -2.238281 3.210938 -2.113281 3.140625 -2 C 3.078125 -1.882812 2.988281 -1.789062 2.875 -1.71875 C 2.75 -1.632812 2.601562 -1.566406 2.4375 -1.515625 C 2.28125 -1.472656 2.101562 -1.453125 1.90625 -1.453125 C 1.71875 -1.453125 1.539062 -1.472656 1.375 -1.515625 C 1.207031 -1.566406 1.066406 -1.632812 0.953125 -1.71875 C 0.835938 -1.789062 0.742188 -1.882812 0.671875 -2 C 0.609375 -2.113281 0.578125 -2.238281 0.578125 -2.375 C 0.578125 -2.65625 0.695312 -2.878906 0.9375 -3.046875 C 1.1875 -3.210938 1.507812 -3.296875 1.90625 -3.296875 Z M 1.90625 -2.9375 C 1.644531 -2.9375 1.4375 -2.882812 1.28125 -2.78125 C 1.132812 -2.675781 1.0625 -2.539062 1.0625 -2.375 C 1.0625 -2.207031 1.132812 -2.070312 1.28125 -1.96875 C 1.4375 -1.863281 1.644531 -1.8125 1.90625 -1.8125 C 2.175781 -1.8125 2.382812 -1.863281 2.53125 -1.96875 C 2.6875 -2.070312 2.765625 -2.207031 2.765625 -2.375 C 2.765625 -2.539062 2.6875 -2.675781 2.53125 -2.78125 C 2.382812 -2.882812 2.175781 -2.9375 1.90625 -2.9375 Z M 5.296875 -2.734375 L 4.546875 -2.734375 L 4.546875 -1.328125 L 4.078125 -1.328125 L 4.078125 -4.609375 L 4.546875 -4.609375 L 4.546875 -3.171875 L 5.296875 -3.171875 Z M 1.65625 0.34375 L 4.078125 0.34375 L 4.078125 -0.640625 L 1.65625 -0.640625 Z M 1.3125 -1.03125 L 4.4375 -1.03125 C 4.476562 -1.03125 4.507812 -1.019531 4.53125 -1 C 4.550781 -0.988281 4.5625 -0.957031 4.5625 -0.90625 L 4.5625 0.609375 C 4.5625 0.660156 4.550781 0.695312 4.53125 0.71875 C 4.507812 0.738281 4.476562 0.75 4.4375 0.75 L 1.3125 0.75 C 1.257812 0.75 1.222656 0.738281 1.203125 0.71875 C 1.191406 0.695312 1.1875 0.660156 1.1875 0.609375 L 1.1875 -0.90625 C 1.1875 -0.957031 1.191406 -0.988281 1.203125 -1 C 1.222656 -1.019531 1.257812 -1.03125 1.3125 -1.03125 Z M 1.3125 -1.03125 "/>
</g>
<g id="glyph-0-26">
<path d="M 0.125 -2.203125 C 0.332031 -2.285156 0.523438 -2.382812 0.703125 -2.5 C 0.878906 -2.625 1.03125 -2.757812 1.15625 -2.90625 C 1.289062 -3.050781 1.394531 -3.210938 1.46875 -3.390625 C 1.539062 -3.578125 1.578125 -3.78125 1.578125 -4 L 1.578125 -4.5 L 2.09375 -4.5 L 2.09375 -4 C 2.09375 -3.8125 2.125 -3.632812 2.1875 -3.46875 C 2.257812 -3.300781 2.363281 -3.148438 2.5 -3.015625 C 2.625 -2.878906 2.769531 -2.757812 2.9375 -2.65625 C 3.113281 -2.550781 3.300781 -2.46875 3.5 -2.40625 L 3.1875 -2.03125 C 2.9375 -2.144531 2.6875 -2.289062 2.4375 -2.46875 C 2.195312 -2.644531 2 -2.875 1.84375 -3.15625 C 1.71875 -2.875 1.535156 -2.625 1.296875 -2.40625 C 1.054688 -2.1875 0.796875 -2.015625 0.515625 -1.890625 Z M 4.6875 -4.609375 L 4.6875 -1.78125 L 4.203125 -1.78125 L 4.203125 -4.609375 Z M 1.296875 0.75 C 1.253906 0.75 1.222656 0.738281 1.203125 0.71875 C 1.179688 0.695312 1.171875 0.660156 1.171875 0.609375 L 1.171875 -0.453125 C 1.171875 -0.503906 1.179688 -0.535156 1.203125 -0.546875 C 1.222656 -0.566406 1.253906 -0.578125 1.296875 -0.578125 L 4.171875 -0.578125 L 4.171875 -1.109375 L 1.171875 -1.109375 L 1.171875 -1.515625 L 4.5625 -1.515625 C 4.601562 -1.515625 4.632812 -1.503906 4.65625 -1.484375 C 4.675781 -1.460938 4.6875 -1.429688 4.6875 -1.390625 L 4.6875 -0.328125 C 4.6875 -0.285156 4.675781 -0.253906 4.65625 -0.234375 C 4.632812 -0.210938 4.601562 -0.203125 4.5625 -0.203125 L 1.6875 -0.203125 L 1.6875 0.359375 L 4.8125 0.359375 L 4.8125 0.75 Z M 1.296875 0.75 "/>
</g>
<g id="glyph-0-27">
<path d="M 0.359375 -3.828125 L 2.875 -3.828125 L 2.875 -3.453125 L 0.359375 -3.453125 Z M 2.25 -4.15625 L 0.96875 -4.15625 L 0.96875 -4.546875 L 2.25 -4.546875 Z M 1.609375 -3.21875 C 1.953125 -3.21875 2.226562 -3.132812 2.4375 -2.96875 C 2.644531 -2.800781 2.75 -2.578125 2.75 -2.296875 C 2.75 -2.023438 2.640625 -1.800781 2.421875 -1.625 C 2.210938 -1.457031 1.941406 -1.375 1.609375 -1.375 C 1.273438 -1.375 1 -1.457031 0.78125 -1.625 C 0.5625 -1.800781 0.453125 -2.023438 0.453125 -2.296875 C 0.453125 -2.578125 0.554688 -2.800781 0.765625 -2.96875 C 0.984375 -3.132812 1.265625 -3.21875 1.609375 -3.21875 Z M 1.609375 -2.875 C 1.378906 -2.875 1.203125 -2.820312 1.078125 -2.71875 C 0.960938 -2.613281 0.90625 -2.472656 0.90625 -2.296875 C 0.90625 -2.117188 0.960938 -1.976562 1.078125 -1.875 C 1.203125 -1.769531 1.378906 -1.71875 1.609375 -1.71875 C 1.828125 -1.71875 1.992188 -1.769531 2.109375 -1.875 C 2.234375 -1.976562 2.296875 -2.117188 2.296875 -2.296875 C 2.296875 -2.472656 2.234375 -2.613281 2.109375 -2.71875 C 1.992188 -2.820312 1.828125 -2.875 1.609375 -2.875 Z M 3.71875 -4.515625 L 3.71875 -3.125 L 4.390625 -3.125 L 4.390625 -4.609375 L 4.84375 -4.609375 L 4.84375 -1.125 L 4.390625 -1.125 L 4.390625 -2.703125 L 3.71875 -2.703125 L 3.71875 -1.296875 L 3.25 -1.296875 L 3.25 -4.515625 Z M 1.0625 -0.109375 C 1.0625 -0.398438 1.222656 -0.644531 1.546875 -0.84375 C 1.867188 -1.039062 2.347656 -1.140625 2.984375 -1.140625 C 3.597656 -1.140625 4.0625 -1.039062 4.375 -0.84375 C 4.695312 -0.644531 4.859375 -0.398438 4.859375 -0.109375 C 4.859375 0.179688 4.695312 0.421875 4.375 0.609375 C 4.0625 0.804688 3.597656 0.90625 2.984375 0.90625 C 2.335938 0.90625 1.851562 0.804688 1.53125 0.609375 C 1.21875 0.421875 1.0625 0.179688 1.0625 -0.109375 Z M 1.578125 -0.109375 C 1.578125 0.0859375 1.707031 0.242188 1.96875 0.359375 C 2.226562 0.472656 2.566406 0.53125 2.984375 0.53125 C 3.390625 0.53125 3.71875 0.472656 3.96875 0.359375 C 4.21875 0.242188 4.34375 0.0859375 4.34375 -0.109375 C 4.34375 -0.316406 4.21875 -0.472656 3.96875 -0.578125 C 3.71875 -0.691406 3.390625 -0.75 2.984375 -0.75 C 2.566406 -0.75 2.226562 -0.691406 1.96875 -0.578125 C 1.707031 -0.472656 1.578125 -0.316406 1.578125 -0.109375 Z M 1.578125 -0.109375 "/>
</g>
<g id="glyph-0-28">
<path d="M 4 -2.765625 L 4 -3.484375 L 1.28125 -3.484375 L 1.28125 -2.765625 Z M 0.828125 -2.5 L 0.828125 -4.546875 L 1.28125 -4.546875 L 1.28125 -3.890625 L 4 -3.890625 L 4 -4.546875 L 4.46875 -4.546875 L 4.46875 -2.5 C 4.46875 -2.445312 4.457031 -2.410156 4.4375 -2.390625 C 4.414062 -2.367188 4.382812 -2.359375 4.34375 -2.359375 L 2.890625 -2.359375 L 2.890625 -1.671875 L 5.125 -1.671875 L 5.125 -1.265625 L 0.171875 -1.265625 L 0.171875 -1.671875 L 2.40625 -1.671875 L 2.40625 -2.359375 L 0.953125 -2.359375 C 0.898438 -2.359375 0.863281 -2.367188 0.84375 -2.390625 C 0.832031 -2.410156 0.828125 -2.445312 0.828125 -2.5 Z M 0.96875 0.6875 C 0.914062 0.6875 0.878906 0.675781 0.859375 0.65625 C 0.835938 0.632812 0.828125 0.597656 0.828125 0.546875 L 0.828125 -0.828125 L 1.296875 -0.828125 L 1.296875 0.265625 L 4.65625 0.265625 L 4.65625 0.6875 Z M 0.96875 0.6875 "/>
</g>
<g id="glyph-0-29">
<path d="M 4.4375 -4.609375 L 4.890625 -4.609375 L 4.890625 0.796875 L 4.4375 0.796875 Z M 2.328125 -4.0625 L 0.9375 -4.0625 L 0.9375 -4.46875 L 2.328125 -4.46875 Z M 2.828125 -3.03125 L 1.890625 -3.03125 L 1.890625 -2.71875 C 1.890625 -2.5 1.921875 -2.296875 1.984375 -2.109375 C 2.046875 -1.921875 2.125 -1.742188 2.21875 -1.578125 C 2.320312 -1.410156 2.441406 -1.257812 2.578125 -1.125 C 2.722656 -0.988281 2.867188 -0.875 3.015625 -0.78125 C 3.003906 -0.757812 2.984375 -0.734375 2.953125 -0.703125 C 2.921875 -0.679688 2.882812 -0.648438 2.84375 -0.609375 C 2.800781 -0.578125 2.757812 -0.546875 2.71875 -0.515625 C 2.6875 -0.484375 2.664062 -0.46875 2.65625 -0.46875 C 2.5625 -0.539062 2.46875 -0.617188 2.375 -0.703125 C 2.28125 -0.796875 2.191406 -0.898438 2.109375 -1.015625 C 2.015625 -1.128906 1.929688 -1.25 1.859375 -1.375 C 1.785156 -1.5 1.71875 -1.640625 1.65625 -1.796875 C 1.59375 -1.617188 1.515625 -1.453125 1.421875 -1.296875 C 1.335938 -1.148438 1.25 -1.007812 1.15625 -0.875 C 1.050781 -0.75 0.945312 -0.632812 0.84375 -0.53125 C 0.75 -0.425781 0.648438 -0.332031 0.546875 -0.25 C 0.523438 -0.269531 0.492188 -0.289062 0.453125 -0.3125 C 0.421875 -0.34375 0.382812 -0.375 0.34375 -0.40625 C 0.3125 -0.425781 0.273438 -0.453125 0.234375 -0.484375 C 0.191406 -0.515625 0.15625 -0.539062 0.125 -0.5625 C 0.28125 -0.664062 0.4375 -0.796875 0.59375 -0.953125 C 0.75 -1.109375 0.890625 -1.28125 1.015625 -1.46875 C 1.117188 -1.644531 1.207031 -1.835938 1.28125 -2.046875 C 1.351562 -2.265625 1.390625 -2.492188 1.390625 -2.734375 L 1.390625 -3.03125 L 0.4375 -3.03125 L 0.4375 -3.453125 L 2.828125 -3.453125 Z M 3.375 -4.515625 L 3.84375 -4.515625 L 3.84375 0.53125 L 3.375 0.53125 L 3.375 -2.015625 L 2.546875 -2.015625 L 2.546875 -2.4375 L 3.375 -2.4375 Z M 3.375 -4.515625 "/>
</g>
<g id="glyph-0-30">
<path d="M 0.359375 -2.078125 C 0.359375 -2.242188 0.390625 -2.378906 0.453125 -2.484375 C 0.523438 -2.597656 0.617188 -2.691406 0.734375 -2.765625 C 0.835938 -2.835938 0.957031 -2.890625 1.09375 -2.921875 C 1.226562 -2.953125 1.367188 -2.96875 1.515625 -2.96875 C 1.660156 -2.96875 1.796875 -2.953125 1.921875 -2.921875 C 2.054688 -2.890625 2.175781 -2.835938 2.28125 -2.765625 C 2.382812 -2.703125 2.46875 -2.613281 2.53125 -2.5 C 2.601562 -2.382812 2.648438 -2.238281 2.671875 -2.0625 L 2.171875 -2.0625 C 2.148438 -2.257812 2.070312 -2.394531 1.9375 -2.46875 C 1.8125 -2.539062 1.660156 -2.578125 1.484375 -2.578125 C 1.316406 -2.578125 1.171875 -2.539062 1.046875 -2.46875 C 0.921875 -2.40625 0.859375 -2.285156 0.859375 -2.109375 C 0.859375 -1.992188 0.882812 -1.90625 0.9375 -1.84375 C 1 -1.789062 1.085938 -1.75 1.203125 -1.71875 C 1.316406 -1.675781 1.453125 -1.632812 1.609375 -1.59375 C 1.773438 -1.5625 1.960938 -1.507812 2.171875 -1.4375 C 2.390625 -1.363281 2.539062 -1.265625 2.625 -1.140625 C 2.71875 -1.023438 2.765625 -0.878906 2.765625 -0.703125 C 2.765625 -0.523438 2.726562 -0.367188 2.65625 -0.234375 C 2.582031 -0.109375 2.488281 -0.00390625 2.375 0.078125 C 2.25 0.160156 2.101562 0.222656 1.9375 0.265625 C 1.78125 0.304688 1.613281 0.328125 1.4375 0.328125 C 1.3125 0.328125 1.175781 0.304688 1.03125 0.265625 C 0.894531 0.234375 0.769531 0.179688 0.65625 0.109375 C 0.539062 0.0351562 0.445312 -0.0625 0.375 -0.1875 C 0.300781 -0.3125 0.257812 -0.46875 0.25 -0.65625 L 0.75 -0.65625 C 0.75 -0.53125 0.769531 -0.429688 0.8125 -0.359375 C 0.863281 -0.285156 0.925781 -0.226562 1 -0.1875 C 1.070312 -0.132812 1.15625 -0.101562 1.25 -0.09375 C 1.34375 -0.0820312 1.4375 -0.078125 1.53125 -0.078125 C 1.71875 -0.078125 1.882812 -0.117188 2.03125 -0.203125 C 2.1875 -0.285156 2.265625 -0.429688 2.265625 -0.640625 C 2.265625 -0.753906 2.238281 -0.84375 2.1875 -0.90625 C 2.132812 -0.96875 2.066406 -1.019531 1.984375 -1.0625 C 1.898438 -1.101562 1.800781 -1.132812 1.6875 -1.15625 C 1.570312 -1.175781 1.457031 -1.203125 1.34375 -1.234375 C 1.21875 -1.265625 1.097656 -1.296875 0.984375 -1.328125 C 0.867188 -1.367188 0.765625 -1.414062 0.671875 -1.46875 C 0.578125 -1.53125 0.5 -1.609375 0.4375 -1.703125 C 0.382812 -1.796875 0.359375 -1.921875 0.359375 -2.078125 Z M 0.359375 -2.078125 "/>
</g>
<g id="glyph-0-31">
<path d="M 2.515625 0.21875 L 2.515625 -0.171875 C 2.367188 0.015625 2.21875 0.144531 2.0625 0.21875 C 1.90625 0.289062 1.726562 0.328125 1.53125 0.328125 C 1.1875 0.328125 0.925781 0.226562 0.75 0.03125 C 0.582031 -0.164062 0.5 -0.445312 0.5 -0.8125 L 0.5 -2.875 L 0.96875 -2.875 L 0.96875 -0.9375 C 0.96875 -0.632812 1.019531 -0.410156 1.125 -0.265625 C 1.238281 -0.128906 1.425781 -0.0625 1.6875 -0.0625 C 1.78125 -0.0625 1.878906 -0.0820312 1.984375 -0.125 C 2.085938 -0.164062 2.175781 -0.226562 2.25 -0.3125 C 2.332031 -0.394531 2.394531 -0.5 2.4375 -0.625 C 2.488281 -0.757812 2.515625 -0.910156 2.515625 -1.078125 L 2.515625 -2.875 L 2.953125 -2.875 L 2.953125 0.21875 Z M 2.515625 0.21875 "/>
</g>
<g id="glyph-0-32">
<path d="M 0.953125 0.21875 L 0.484375 0.21875 L 0.484375 -4.375 L 0.953125 -4.375 Z M 0.953125 0.21875 "/>
</g>
<g id="glyph-0-33">
<path d="M 1.1875 -3.765625 L 1.1875 -2.875 L 1.875 -2.875 L 1.875 -2.484375 L 1.1875 -2.484375 L 1.1875 -0.53125 C 1.1875 -0.34375 1.222656 -0.21875 1.296875 -0.15625 C 1.367188 -0.09375 1.460938 -0.0625 1.578125 -0.0625 C 1.648438 -0.0625 1.707031 -0.0664062 1.75 -0.078125 C 1.800781 -0.0859375 1.851562 -0.101562 1.90625 -0.125 L 1.90625 0.265625 C 1.84375 0.285156 1.773438 0.300781 1.703125 0.3125 C 1.640625 0.320312 1.578125 0.328125 1.515625 0.328125 C 1.398438 0.328125 1.296875 0.3125 1.203125 0.28125 C 1.109375 0.257812 1.023438 0.222656 0.953125 0.171875 C 0.890625 0.109375 0.835938 0.0234375 0.796875 -0.078125 C 0.753906 -0.179688 0.734375 -0.3125 0.734375 -0.46875 L 0.734375 -2.484375 L 0.140625 -2.484375 L 0.140625 -2.875 L 0.734375 -2.875 L 0.734375 -3.765625 Z M 1.1875 -3.765625 "/>
</g>
<g id="glyph-0-34">
<path d="M 1.578125 -2.296875 L 1.578125 -3.6875 L 2.03125 -3.6875 L 2.03125 -2.296875 L 3.34375 -2.296875 L 3.34375 -1.875 L 2.03125 -1.875 L 2.03125 -0.484375 L 1.578125 -0.484375 L 1.578125 -1.875 L 0.265625 -1.875 L 0.265625 -2.296875 Z M 1.578125 -2.296875 "/>
</g>
<g id="glyph-0-35">
<path d="M 2.984375 -3.734375 L 1.40625 0.1875 L 0.859375 0.1875 L 2.53125 -3.828125 L 0.296875 -3.828125 L 0.296875 -4.25 L 2.921875 -4.25 C 2.960938 -4.25 2.992188 -4.238281 3.015625 -4.21875 C 3.035156 -4.207031 3.046875 -4.179688 3.046875 -4.140625 L 3.046875 -3.90625 C 3.046875 -3.875 3.039062 -3.84375 3.03125 -3.8125 C 3.019531 -3.78125 3.003906 -3.753906 2.984375 -3.734375 Z M 2.984375 -3.734375 "/>
</g>
<g id="glyph-0-36">
<path d="M 0.96875 -1.296875 C 0.914062 -1.296875 0.878906 -1.304688 0.859375 -1.328125 C 0.847656 -1.347656 0.84375 -1.378906 0.84375 -1.421875 L 0.84375 -2.90625 C 0.84375 -2.957031 0.847656 -2.992188 0.859375 -3.015625 C 0.878906 -3.035156 0.914062 -3.046875 0.96875 -3.046875 L 3.921875 -3.046875 L 3.921875 -3.953125 L 0.828125 -3.953125 L 0.828125 -4.34375 L 4.265625 -4.34375 C 4.316406 -4.34375 4.351562 -4.332031 4.375 -4.3125 C 4.394531 -4.300781 4.40625 -4.269531 4.40625 -4.21875 L 4.40625 -2.765625 C 4.40625 -2.710938 4.394531 -2.675781 4.375 -2.65625 C 4.351562 -2.644531 4.316406 -2.640625 4.265625 -2.640625 L 1.3125 -2.640625 L 1.3125 -1.703125 L 4.5625 -1.703125 L 4.5625 -1.296875 L 2.875 -1.296875 L 2.875 -0.296875 L 5.125 -0.296875 L 5.125 0.125 L 0.171875 0.125 L 0.171875 -0.296875 L 2.390625 -0.296875 L 2.390625 -1.296875 Z M 0.96875 -1.296875 "/>
</g>
<g id="glyph-0-37">
<path d="M 1.296875 -2.515625 L 3.96875 -2.515625 L 3.96875 -3.40625 L 1.296875 -3.40625 Z M 0.828125 -2.234375 L 0.828125 -4.484375 L 1.296875 -4.484375 L 1.296875 -3.796875 L 3.96875 -3.796875 L 3.96875 -4.484375 L 4.453125 -4.484375 L 4.453125 -2.234375 C 4.453125 -2.179688 4.441406 -2.144531 4.421875 -2.125 C 4.410156 -2.113281 4.378906 -2.109375 4.328125 -2.109375 L 0.953125 -2.109375 C 0.910156 -2.109375 0.878906 -2.113281 0.859375 -2.125 C 0.835938 -2.144531 0.828125 -2.179688 0.828125 -2.234375 Z M 5.125 -1.015625 L 2.90625 -1.015625 L 2.90625 0.796875 L 2.421875 0.796875 L 2.421875 -1.015625 L 0.171875 -1.015625 L 0.171875 -1.421875 L 5.125 -1.421875 Z M 5.125 -1.015625 "/>
</g>
<g id="glyph-0-38">
<path d="M 0.78125 -4.34375 L 3.09375 -4.34375 L 3.09375 -3.9375 L 1.140625 -3.9375 L 1.140625 -2.6875 L 2.875 -2.6875 L 2.875 -2.265625 L 1.140625 -2.265625 L 1.140625 -0.96875 L 1.578125 -0.96875 C 1.742188 -0.96875 1.921875 -0.972656 2.109375 -0.984375 C 2.304688 -0.992188 2.5 -1.003906 2.6875 -1.015625 C 2.875 -1.035156 3.050781 -1.054688 3.21875 -1.078125 C 3.394531 -1.097656 3.546875 -1.117188 3.671875 -1.140625 L 3.671875 -0.734375 C 3.503906 -0.703125 3.316406 -0.671875 3.109375 -0.640625 C 2.898438 -0.617188 2.679688 -0.597656 2.453125 -0.578125 C 2.222656 -0.554688 1.992188 -0.539062 1.765625 -0.53125 C 1.535156 -0.53125 1.320312 -0.53125 1.125 -0.53125 L 0.78125 -0.53125 C 0.726562 -0.53125 0.691406 -0.535156 0.671875 -0.546875 C 0.660156 -0.566406 0.65625 -0.601562 0.65625 -0.65625 L 0.65625 -4.21875 C 0.65625 -4.269531 0.660156 -4.300781 0.671875 -4.3125 C 0.691406 -4.332031 0.726562 -4.34375 0.78125 -4.34375 Z M 4.1875 0.796875 L 4.1875 -2.328125 L 3.25 -2.328125 L 3.25 -2.765625 L 4.1875 -2.765625 L 4.1875 -4.609375 L 4.65625 -4.609375 L 4.65625 0.796875 Z M 4.1875 0.796875 "/>
</g>
<g id="glyph-0-39">
<path d="M 2.90625 -4.359375 C 2.945312 -4.359375 2.976562 -4.347656 3 -4.328125 C 3.019531 -4.304688 3.03125 -4.273438 3.03125 -4.234375 C 2.945312 -3.609375 2.679688 -3.085938 2.234375 -2.671875 C 1.796875 -2.265625 1.238281 -1.960938 0.5625 -1.765625 L 0.265625 -2.109375 C 0.535156 -2.179688 0.789062 -2.273438 1.03125 -2.390625 C 1.28125 -2.503906 1.5 -2.640625 1.6875 -2.796875 C 1.882812 -2.941406 2.046875 -3.109375 2.171875 -3.296875 C 2.304688 -3.492188 2.40625 -3.707031 2.46875 -3.9375 L 0.5625 -3.9375 L 0.5625 -4.359375 Z M 5.265625 -2.984375 L 4.5 -2.984375 L 4.5 -1.796875 L 4.03125 -1.796875 L 4.03125 -4.609375 L 4.5 -4.609375 L 4.5 -3.40625 L 5.265625 -3.40625 Z M 2.421875 0.359375 L 2.421875 -0.4375 L 1.4375 -0.4375 L 1.4375 0.359375 Z M 1 -1.515625 L 1.453125 -1.515625 L 1.453125 -0.796875 L 2.40625 -0.796875 L 2.40625 -1.515625 L 2.859375 -1.515625 L 2.859375 0.453125 C 3.117188 0.285156 3.328125 0.078125 3.484375 -0.171875 C 3.648438 -0.421875 3.734375 -0.734375 3.734375 -1.109375 L 3.734375 -1.53125 L 4.203125 -1.53125 L 4.203125 -1.109375 C 4.203125 -0.734375 4.289062 -0.410156 4.46875 -0.140625 C 4.644531 0.128906 4.851562 0.332031 5.09375 0.46875 L 4.765625 0.796875 C 4.597656 0.671875 4.441406 0.519531 4.296875 0.34375 C 4.148438 0.175781 4.039062 -0.0195312 3.96875 -0.25 C 3.882812 -0.0078125 3.773438 0.191406 3.640625 0.359375 C 3.503906 0.523438 3.351562 0.671875 3.1875 0.796875 L 2.859375 0.5 L 2.859375 0.609375 C 2.859375 0.660156 2.847656 0.691406 2.828125 0.703125 C 2.816406 0.722656 2.785156 0.734375 2.734375 0.734375 L 1.140625 0.734375 C 1.085938 0.734375 1.050781 0.722656 1.03125 0.703125 C 1.007812 0.691406 1 0.660156 1 0.609375 Z M 1 -1.515625 "/>
</g>
<g id="glyph-0-40">
<path d="M 0.96875 -2.109375 L 2.484375 -2.109375 L 2.484375 -3.046875 L 0.96875 -3.046875 Z M 0.5 -1.828125 L 0.5 -4.421875 L 0.96875 -4.421875 L 0.96875 -3.46875 L 2.484375 -3.46875 L 2.484375 -4.421875 L 2.953125 -4.421875 L 2.953125 -1.828125 C 2.953125 -1.773438 2.941406 -1.738281 2.921875 -1.71875 C 2.898438 -1.695312 2.867188 -1.6875 2.828125 -1.6875 L 0.625 -1.6875 C 0.570312 -1.6875 0.535156 -1.695312 0.515625 -1.71875 C 0.503906 -1.738281 0.5 -1.773438 0.5 -1.828125 Z M 4.015625 -0.640625 L 4.015625 -4.609375 L 4.484375 -4.609375 L 4.484375 -3.1875 L 5.234375 -3.1875 L 5.234375 -2.765625 L 4.484375 -2.765625 L 4.484375 -0.640625 Z M 1.09375 -1.03125 L 1.578125 -1.03125 L 1.578125 0.265625 L 4.65625 0.265625 L 4.65625 0.6875 L 1.21875 0.6875 C 1.164062 0.6875 1.128906 0.675781 1.109375 0.65625 C 1.097656 0.632812 1.09375 0.597656 1.09375 0.546875 Z M 1.09375 -1.03125 "/>
</g>
<g id="glyph-0-41">
<path d="M 0.515625 -3.984375 L 3.484375 -3.984375 L 3.484375 -3.640625 L 0.515625 -3.640625 Z M 1.265625 -4.625 L 2.765625 -4.625 L 2.765625 -4.28125 L 1.265625 -4.28125 Z M 2.015625 -3.40625 C 2.410156 -3.40625 2.726562 -3.332031 2.96875 -3.1875 C 3.207031 -3.050781 3.328125 -2.863281 3.328125 -2.625 C 3.328125 -2.414062 3.226562 -2.238281 3.03125 -2.09375 C 2.832031 -1.957031 2.582031 -1.875 2.28125 -1.84375 L 2.28125 -1.390625 C 2.382812 -1.390625 2.507812 -1.390625 2.65625 -1.390625 C 2.800781 -1.398438 2.945312 -1.414062 3.09375 -1.4375 C 3.238281 -1.445312 3.378906 -1.457031 3.515625 -1.46875 C 3.648438 -1.488281 3.765625 -1.503906 3.859375 -1.515625 L 3.859375 -1.140625 C 3.585938 -1.097656 3.253906 -1.0625 2.859375 -1.03125 C 2.472656 -1.007812 2.085938 -1 1.703125 -1 L 0.265625 -1 L 0.265625 -1.390625 L 1.765625 -1.390625 L 1.765625 -1.84375 C 1.453125 -1.875 1.195312 -1.957031 1 -2.09375 C 0.8125 -2.238281 0.71875 -2.414062 0.71875 -2.625 C 0.71875 -2.863281 0.835938 -3.050781 1.078125 -3.1875 C 1.316406 -3.332031 1.628906 -3.40625 2.015625 -3.40625 Z M 2.015625 -3.09375 C 1.773438 -3.09375 1.582031 -3.050781 1.4375 -2.96875 C 1.289062 -2.882812 1.21875 -2.769531 1.21875 -2.625 C 1.21875 -2.488281 1.289062 -2.375 1.4375 -2.28125 C 1.582031 -2.195312 1.773438 -2.15625 2.015625 -2.15625 C 2.265625 -2.15625 2.460938 -2.195312 2.609375 -2.28125 C 2.753906 -2.375 2.828125 -2.488281 2.828125 -2.625 C 2.828125 -2.769531 2.753906 -2.882812 2.609375 -2.96875 C 2.460938 -3.050781 2.265625 -3.09375 2.015625 -3.09375 Z M 4.546875 -4.59375 L 4.546875 -2.875 L 5.296875 -2.875 L 5.296875 -2.4375 L 4.546875 -2.4375 L 4.546875 -0.4375 L 4.078125 -0.4375 L 4.078125 -4.59375 Z M 1.265625 0.6875 C 1.210938 0.6875 1.175781 0.675781 1.15625 0.65625 C 1.144531 0.644531 1.140625 0.613281 1.140625 0.5625 L 1.140625 -0.65625 L 1.640625 -0.65625 L 1.640625 0.265625 L 4.734375 0.265625 L 4.734375 0.6875 Z M 1.265625 0.6875 "/>
</g>
</g>
<clipPath id="clip-0">
<path clip-rule="nonzero" d="M 280 0 L 399 0 L 399 120.128906 L 280 120.128906 Z M 280 0 "/>
</clipPath>
<clipPath id="clip-1">
<path clip-rule="nonzero" d="M 26 56 L 130 56 L 130 120.128906 L 26 120.128906 Z M 26 56 "/>
</clipPath>
</defs>
<path fill-rule="nonzero" fill="rgb(84.611511%, 88.987732%, 98.588562%)" fill-opacity="1" stroke-width="0.99628" stroke-linecap="butt" stroke-linejoin="miter" stroke="rgb(35.882568%, 54.116821%, 94.117737%)" stroke-opacity="1" stroke-miterlimit="10" d="M 62.016515 -72.836531 C 62.016515 -68.100824 65.858618 -64.258721 70.594325 -64.258721 L 128.938393 -64.258721 C 133.681973 -64.258721 137.524076 -68.100824 137.524076 -72.836531 L 137.524076 -98.585708 C 137.524076 -103.325351 133.681973 -107.163518 128.938393 -107.163518 L 70.594325 -107.163518 C 65.858618 -107.163518 62.016515 -103.325351 62.016515 -98.585708 Z M 62.016515 -72.836531 " transform="matrix(0.992295, 0, 0, -0.992295, -22.675402, -49.826113)"/>
<path fill-rule="nonzero" fill="rgb(100%, 100%, 100%)" fill-opacity="1" stroke-width="0.49814" stroke-linecap="butt" stroke-linejoin="miter" stroke="rgb(57.255554%, 69.410706%, 96.076965%)" stroke-opacity="1" stroke-miterlimit="10" d="M 80.734958 -86.39018 C 80.734958 -84.658084 82.140317 -83.252725 83.872413 -83.252725 L 124.671139 -83.252725 C 126.403235 -83.252725 127.808594 -84.658084 127.808594 -86.39018 L 127.808594 -95.806482 C 127.808594 -97.538577 126.403235 -98.943937 124.671139 -98.943937 L 83.872413 -98.943937 C 82.140317 -98.943937 80.734958 -97.538577 80.734958 -95.806482 Z M 80.734958 -86.39018 " transform="matrix(0.992295, 0, 0, -0.992295, -22.675402, -49.826113)"/>
<path fill="none" stroke-width="1.19553" stroke-linecap="butt" stroke-linejoin="miter" stroke="rgb(47.764587%, 50.236511%, 55.175781%)" stroke-opacity="1" stroke-miterlimit="10" d="M 128.556544 -91.472306 L 201.036874 -90.740102 " transform="matrix(0.992295, 0, 0, -0.992295, -22.675402, -49.826113)"/>
<path fill="none" stroke-width="1.19553" stroke-linecap="butt" stroke-linejoin="miter" stroke="rgb(47.764587%, 50.236511%, 55.175781%)" stroke-opacity="1" stroke-miterlimit="10" d="M 194.387989 -93.267387 C 197.348298 -91.822662 200.060602 -90.976297 202.528839 -90.724355 C 200.056666 -90.527526 197.328615 -89.732337 194.34075 -88.350597 " transform="matrix(0.992295, 0, 0, -0.992295, -22.675402, -49.826113)"/>
<path fill-rule="nonzero" fill="rgb(89.115906%, 75%, 44.117737%)" fill-opacity="1" stroke-width="0.99628" stroke-linecap="butt" stroke-linejoin="miter" stroke="rgb(86.941528%, 69.999695%, 32.939148%)" stroke-opacity="1" stroke-miterlimit="10" d="M 146.491608 -76.737683 C 146.491608 -75.414992 147.558421 -74.348178 148.881112 -74.348178 L 156.053563 -74.348178 C 157.368381 -74.348178 158.447004 -75.414992 158.447004 -76.737683 L 158.447004 -84.22506 C 158.447004 -85.547751 157.368381 -86.614565 156.053563 -86.614565 L 148.881112 -86.614565 C 147.558421 -86.614565 146.491608 -85.547751 146.491608 -84.22506 Z M 146.491608 -76.737683 " transform="matrix(0.992295, 0, 0, -0.992295, -22.675402, -49.826113)"/>
<path fill-rule="nonzero" fill="rgb(89.115906%, 75%, 44.117737%)" fill-opacity="1" stroke-width="0.99628" stroke-linecap="butt" stroke-linejoin="miter" stroke="rgb(86.941528%, 69.999695%, 32.939148%)" stroke-opacity="1" stroke-miterlimit="10" d="M 162.18282 -76.737683 C 162.18282 -75.414992 163.249633 -74.348178 164.572324 -74.348178 L 171.744775 -74.348178 C 173.059593 -74.348178 174.138216 -75.414992 174.138216 -76.737683 L 174.138216 -84.22506 C 174.138216 -85.547751 173.059593 -86.614565 171.744775 -86.614565 L 164.572324 -86.614565 C 163.249633 -86.614565 162.18282 -85.547751 162.18282 -84.22506 Z M 162.18282 -76.737683 " transform="matrix(0.992295, 0, 0, -0.992295, -22.675402, -49.826113)"/>
<path fill-rule="nonzero" fill="rgb(84.611511%, 88.987732%, 98.588562%)" fill-opacity="1" stroke-width="0.99628" stroke-linecap="butt" stroke-linejoin="miter" stroke="rgb(35.882568%, 54.116821%, 94.117737%)" stroke-opacity="1" stroke-miterlimit="10" d="M 203.24136 -69.848666 C 203.24136 -65.112959 207.079526 -61.270856 211.81917 -61.270856 L 270.159301 -61.270856 C 274.906818 -61.270856 278.744984 -65.112959 278.744984 -69.848666 L 278.744984 -95.597843 C 278.744984 -100.33355 274.906818 -104.175653 270.159301 -104.175653 L 211.81917 -104.175653 C 207.079526 -104.175653 203.24136 -100.33355 203.24136 -95.597843 Z M 203.24136 -69.848666 " transform="matrix(0.992295, 0, 0, -0.992295, -22.675402, -49.826113)"/>
<path fill-rule="nonzero" fill="rgb(100%, 100%, 100%)" fill-opacity="1" stroke-width="0.49814" stroke-linecap="butt" stroke-linejoin="miter" stroke="rgb(57.255554%, 69.410706%, 96.076965%)" stroke-opacity="1" stroke-miterlimit="10" d="M 211.81917 -83.402315 C 211.81917 -81.670219 213.224529 -80.26486 214.956625 -80.26486 L 265.892047 -80.26486 C 267.628079 -80.26486 269.033439 -81.670219 269.033439 -83.402315 L 269.033439 -92.818617 C 269.033439 -94.550712 267.628079 -95.956072 265.892047 -95.956072 L 214.956625 -95.956072 C 213.224529 -95.956072 211.81917 -94.550712 211.81917 -92.818617 Z M 211.81917 -83.402315 " transform="matrix(0.992295, 0, 0, -0.992295, -22.675402, -49.826113)"/>
<path fill-rule="nonzero" fill="rgb(89.115906%, 75%, 44.117737%)" fill-opacity="1" stroke-width="0.99628" stroke-linecap="butt" stroke-linejoin="miter" stroke="rgb(86.941528%, 69.999695%, 32.939148%)" stroke-opacity="1" stroke-miterlimit="10" d="M 216.728086 -111.840176 C 216.728086 -110.533231 217.787027 -109.466418 219.101845 -109.466418 L 236.761347 -109.466418 C 238.076165 -109.466418 239.142979 -110.533231 239.142979 -111.840176 L 239.142979 -118.985071 C 239.142979 -120.299889 238.076165 -121.362766 236.761347 -121.362766 L 219.101845 -121.362766 C 217.787027 -121.362766 216.728086 -120.299889 216.728086 -118.985071 Z M 216.728086 -111.840176 " transform="matrix(0.992295, 0, 0, -0.992295, -22.675402, -49.826113)"/>
<path fill-rule="nonzero" fill="rgb(89.115906%, 75%, 44.117737%)" fill-opacity="1" stroke-width="0.99628" stroke-linecap="butt" stroke-linejoin="miter" stroke="rgb(86.941528%, 69.999695%, 32.939148%)" stroke-opacity="1" stroke-miterlimit="10" d="M 245.122645 -111.840176 C 245.122645 -110.533231 246.181586 -109.466418 247.496404 -109.466418 L 265.155906 -109.466418 C 266.470724 -109.466418 267.537538 -110.533231 267.537538 -111.840176 L 267.537538 -118.985071 C 267.537538 -120.299889 266.470724 -121.362766 265.155906 -121.362766 L 247.496404 -121.362766 C 246.181586 -121.362766 245.122645 -120.299889 245.122645 -118.985071 Z M 245.122645 -111.840176 " transform="matrix(0.992295, 0, 0, -0.992295, -22.675402, -49.826113)"/>
<path fill="none" stroke-width="0.99628" stroke-linecap="butt" stroke-linejoin="miter" stroke="rgb(0%, 0%, 0%)" stroke-opacity="1" stroke-miterlimit="10" d="M 236.761347 -109.466418 L 245.000611 -97.920426 " transform="matrix(0.992295, 0, 0, -0.992295, -22.675402, -49.826113)"/>
<path fill="none" stroke-width="1.19553" stroke-linecap="butt" stroke-linejoin="miter" stroke="rgb(47.764587%, 50.236511%, 55.175781%)" stroke-opacity="1" stroke-miterlimit="10" d="M 243.126799 -104.77795 C 243.705476 -101.538144 244.614826 -98.845522 245.870596 -96.704022 C 244.248724 -98.585708 242.000937 -100.32174 239.123296 -101.923928 " transform="matrix(0.992295, 0, 0, -0.992295, -22.675402, -49.826113)"/>
<path fill="none" stroke-width="0.99628" stroke-linecap="butt" stroke-linejoin="miter" stroke="rgb(0%, 0%, 0%)" stroke-opacity="1" stroke-miterlimit="10" d="M 247.496404 -109.466418 L 255.739604 -97.920426 " transform="matrix(0.992295, 0, 0, -0.992295, -22.675402, -49.826113)"/>
<path fill="none" stroke-width="1.19553" stroke-linecap="butt" stroke-linejoin="miter" stroke="rgb(47.764587%, 50.236511%, 55.175781%)" stroke-opacity="1" stroke-miterlimit="10" d="M 253.861855 -104.77795 C 254.440533 -101.538144 255.35382 -98.845522 256.605652 -96.704022 C 254.987718 -98.585708 252.73993 -100.32174 249.862289 -101.923928 " transform="matrix(0.992295, 0, 0, -0.992295, -22.675402, -49.826113)"/>
<path fill-rule="nonzero" fill="rgb(96.116638%, 89.411926%, 85.528564%)" fill-opacity="1" d="M 297.632812 23.4375 C 297.632812 14.09375 305.203125 6.523438 314.542969 6.523438 L 365.28125 6.523438 C 374.625 6.523438 382.195312 14.09375 382.195312 23.4375 L 382.195312 96.691406 C 382.195312 106.035156 374.625 113.605469 365.28125 113.605469 L 314.542969 113.605469 C 305.203125 113.605469 297.632812 106.035156 297.632812 96.691406 Z M 297.632812 23.4375 "/>
<g clip-path="url(#clip-0)">
<path fill="none" stroke-width="1.19553" stroke-linecap="butt" stroke-linejoin="miter" stroke="rgb(82.743835%, 52.938843%, 35.68573%)" stroke-opacity="1" stroke-miterlimit="10" d="M 322.795326 -73.832486 C 322.795326 -64.416184 330.42442 -56.78709 339.836785 -56.78709 L 390.969036 -56.78709 C 400.385338 -56.78709 408.014432 -64.416184 408.014432 -73.832486 L 408.014432 -147.65519 C 408.014432 -157.071492 400.385338 -164.700586 390.969036 -164.700586 L 339.836785 -164.700586 C 330.42442 -164.700586 322.795326 -157.071492 322.795326 -147.65519 Z M 322.795326 -73.832486 " transform="matrix(0.992295, 0, 0, -0.992295, -22.675402, -49.826113)"/>
</g>
<path fill="none" stroke-width="1.19553" stroke-linecap="butt" stroke-linejoin="miter" stroke="rgb(47.764587%, 50.236511%, 55.175781%)" stroke-opacity="1" stroke-miterlimit="10" d="M 279.492934 -88.484441 L 321.334854 -88.484441 " transform="matrix(0.992295, 0, 0, -0.992295, -22.675402, -49.826113)"/>
<path fill="none" stroke-width="1.19553" stroke-linecap="butt" stroke-linejoin="miter" stroke="rgb(47.764587%, 50.236511%, 55.175781%)" stroke-opacity="1" stroke-miterlimit="10" d="M 314.662349 -90.940867 C 317.638405 -89.531571 320.358582 -88.708826 322.830755 -88.484441 C 320.358582 -88.260056 317.638405 -87.43731 314.662349 -86.024078 " transform="matrix(0.992295, 0, 0, -0.992295, -22.675402, -49.826113)"/>
<path fill-rule="nonzero" fill="rgb(100%, 100%, 100%)" fill-opacity="1" stroke-width="0.49814" stroke-linecap="butt" stroke-linejoin="miter" stroke="rgb(89.216614%, 70.585632%, 59.803772%)" stroke-opacity="1" stroke-miterlimit="10" d="M 331.014907 -101.38068 C 331.014907 -93.676791 337.266198 -87.421564 344.970087 -87.421564 L 387.323762 -87.421564 C 395.035524 -87.421564 401.286815 -93.676791 401.286815 -101.38068 L 401.286815 -143.269839 C 401.286815 -150.981601 395.035524 -157.228955 387.323762 -157.228955 L 344.970087 -157.228955 C 337.266198 -157.228955 331.014907 -150.981601 331.014907 -143.269839 Z M 331.014907 -101.38068 " transform="matrix(0.992295, 0, 0, -0.992295, -22.675402, -49.826113)"/>
<path fill-rule="nonzero" fill="rgb(36.764526%, 66.175842%, 61.764526%)" fill-opacity="1" stroke-width="0.99628" stroke-linecap="butt" stroke-linejoin="miter" stroke="rgb(24.116516%, 59.411621%, 54.116821%)" stroke-opacity="1" stroke-miterlimit="10" d="M 156.951103 -132.0309 C 156.951103 -130.708209 158.017917 -129.641396 159.340608 -129.641396 L 166.516995 -129.641396 C 167.831813 -129.641396 168.9065 -130.708209 168.9065 -132.0309 L 168.9065 -139.518277 C 168.9065 -140.840969 167.831813 -141.907782 166.516995 -141.907782 L 159.340608 -141.907782 C 158.017917 -141.907782 156.951103 -140.840969 156.951103 -139.518277 Z M 156.951103 -132.0309 " transform="matrix(0.992295, 0, 0, -0.992295, -22.675402, -49.826113)"/>
<path fill-rule="nonzero" fill="rgb(84.611511%, 88.987732%, 98.588562%)" fill-opacity="1" d="M 40.347656 78.800781 C 40.347656 74.101562 44.160156 70.289062 48.859375 70.289062 L 106.753906 70.289062 C 111.460938 70.289062 115.269531 74.101562 115.269531 78.800781 L 115.269531 104.351562 C 115.269531 109.050781 111.460938 112.863281 106.753906 112.863281 L 48.859375 112.863281 C 44.160156 112.863281 40.347656 109.050781 40.347656 104.351562 Z M 40.347656 78.800781 "/>
<g clip-path="url(#clip-1)">
<path fill="none" stroke-width="0.99628" stroke-linecap="butt" stroke-linejoin="miter" stroke="rgb(35.882568%, 54.116821%, 94.117737%)" stroke-opacity="1" stroke-miterlimit="10" d="M 63.512416 -129.625649 C 63.512416 -124.889942 67.354519 -121.047839 72.090226 -121.047839 L 130.434294 -121.047839 C 135.177874 -121.047839 139.01604 -124.889942 139.01604 -129.625649 L 139.01604 -155.374826 C 139.01604 -160.110533 135.177874 -163.952636 130.434294 -163.952636 L 72.090226 -163.952636 C 67.354519 -163.952636 63.512416 -160.110533 63.512416 -155.374826 Z M 63.512416 -129.625649 " transform="matrix(0.992295, 0, 0, -0.992295, -22.675402, -49.826113)"/>
</g>
<path fill-rule="nonzero" fill="rgb(100%, 100%, 100%)" fill-opacity="1" stroke-width="0.49814" stroke-linecap="butt" stroke-linejoin="miter" stroke="rgb(57.255554%, 69.410706%, 96.076965%)" stroke-opacity="1" stroke-miterlimit="10" d="M 82.230859 -140.191433 C 82.230859 -138.459337 83.636218 -137.053978 85.368314 -137.053978 L 126.16704 -137.053978 C 127.899135 -137.053978 129.304495 -138.459337 129.304495 -140.191433 L 129.304495 -149.607735 C 129.304495 -151.33983 127.899135 -152.74519 126.16704 -152.74519 L 85.368314 -152.74519 C 83.636218 -152.74519 82.230859 -151.33983 82.230859 -149.607735 Z M 82.230859 -140.191433 " transform="matrix(0.992295, 0, 0, -0.992295, -22.675402, -49.826113)"/>
<path fill="none" stroke-width="1.19553" stroke-linecap="butt" stroke-linejoin="miter" stroke="rgb(47.764587%, 50.236511%, 55.175781%)" stroke-opacity="1" stroke-miterlimit="10" d="M 337.026066 -144.525608 L 130.052445 -144.525608 " transform="matrix(0.992295, 0, 0, -0.992295, -22.675402, -49.826113)"/>
<path fill="none" stroke-width="1.19553" stroke-linecap="butt" stroke-linejoin="miter" stroke="rgb(47.764587%, 50.236511%, 55.175781%)" stroke-opacity="1" stroke-miterlimit="10" d="M 136.72495 -142.065245 C 133.748895 -143.478478 131.028717 -144.301223 128.556544 -144.525608 C 131.028717 -144.749994 133.748895 -145.572739 136.72495 -146.982035 " transform="matrix(0.992295, 0, 0, -0.992295, -22.675402, -49.826113)"/>
<g fill="rgb(0%, 0%, 0%)" fill-opacity="1">
<use xlink:href="#glyph-0-0" x="122.402108" y="47.953652"/>
<use xlink:href="#glyph-0-1" x="127.71234" y="47.953652"/>
</g>
<g fill="rgb(0%, 0%, 0%)" fill-opacity="1">
<use xlink:href="#glyph-0-2" x="134.788589" y="47.953652"/>
<use xlink:href="#glyph-0-3" x="140.09882" y="47.953652"/>
</g>
<g fill="rgb(0%, 0%, 0%)" fill-opacity="1">
<use xlink:href="#glyph-0-4" x="49.739316" y="23.540216"/>
<use xlink:href="#glyph-0-5" x="55.049548" y="23.540216"/>
</g>
<g fill="rgb(0%, 0%, 0%)" fill-opacity="1">
<use xlink:href="#glyph-0-6" x="44.549613" y="41.53648"/>
</g>
<g fill="rgb(0%, 0%, 0%)" fill-opacity="1">
<use xlink:href="#glyph-0-7" x="48.392223" y="41.53648"/>
</g>
<g fill="rgb(0%, 0%, 0%)" fill-opacity="1">
<use xlink:href="#glyph-0-8" x="60.815242" y="41.53648"/>
</g>
<g fill="rgb(0%, 0%, 0%)" fill-opacity="1">
<use xlink:href="#glyph-0-9" x="62.800489" y="41.53648"/>
<use xlink:href="#glyph-0-9" x="66.143742" y="41.53648"/>
<use xlink:href="#glyph-0-10" x="69.486996" y="41.53648"/>
</g>
<g fill="rgb(78.399658%, 41.19873%, 19.599915%)" fill-opacity="1">
<use xlink:href="#glyph-0-11" x="73.208087" y="41.53648"/>
<use xlink:href="#glyph-0-12" x="76.636597" y="41.53648"/>
</g>
<g fill="rgb(78.399658%, 41.19873%, 19.599915%)" fill-opacity="1">
<use xlink:href="#glyph-0-13" x="80.229529" y="41.53648"/>
</g>
<g fill="rgb(0%, 0%, 0%)" fill-opacity="1">
<use xlink:href="#glyph-0-14" x="85.424232" y="41.53648"/>
</g>
<g fill="rgb(0%, 0%, 0%)" fill-opacity="1">
<use xlink:href="#glyph-0-11" x="125.129928" y="29.693438"/>
</g>
<g fill="rgb(0%, 0%, 0%)" fill-opacity="1">
<use xlink:href="#glyph-0-13" x="140.701022" y="29.657715"/>
</g>
<g fill="rgb(0%, 0%, 0%)" fill-opacity="1">
<use xlink:href="#glyph-0-15" x="189.874205" y="20.550431"/>
<use xlink:href="#glyph-0-16" x="195.184436" y="20.550431"/>
</g>
<g fill="rgb(0%, 0%, 0%)" fill-opacity="1">
<use xlink:href="#glyph-0-17" x="202.260685" y="20.550431"/>
<use xlink:href="#glyph-0-18" x="207.570916" y="20.550431"/>
</g>
<g fill="rgb(0%, 0%, 0%)" fill-opacity="1">
<use xlink:href="#glyph-0-19" x="214.647165" y="20.550431"/>
<use xlink:href="#glyph-0-20" x="219.957396" y="20.550431"/>
</g>
<g fill="rgb(0%, 0%, 0%)" fill-opacity="1">
<use xlink:href="#glyph-0-21" x="190.970691" y="39.029942"/>
<use xlink:href="#glyph-0-22" x="194.393111" y="39.029942"/>
<use xlink:href="#glyph-0-8" x="197.81553" y="39.029942"/>
</g>
<g fill="rgb(0%, 0%, 0%)" fill-opacity="1">
<use xlink:href="#glyph-0-8" x="201.658141" y="39.029942"/>
</g>
<g fill="rgb(0%, 0%, 0%)" fill-opacity="1">
<use xlink:href="#glyph-0-9" x="203.643388" y="39.029942"/>
<use xlink:href="#glyph-0-9" x="206.986641" y="39.029942"/>
<use xlink:href="#glyph-0-10" x="210.329895" y="39.029942"/>
</g>
<g fill="rgb(78.399658%, 41.19873%, 19.599915%)" fill-opacity="1">
<use xlink:href="#glyph-0-23" x="214.051474" y="39.029942"/>
<use xlink:href="#glyph-0-12" x="219.47741" y="39.029942"/>
</g>
<g fill="rgb(78.399658%, 41.19873%, 19.599915%)" fill-opacity="1">
<use xlink:href="#glyph-0-24" x="223.064253" y="39.029942"/>
</g>
<g fill="rgb(0%, 0%, 0%)" fill-opacity="1">
<use xlink:href="#glyph-0-14" x="226.49287" y="39.029942"/>
</g>
<g fill="rgb(0%, 0%, 0%)" fill-opacity="1">
<use xlink:href="#glyph-0-23" x="194.82675" y="64.541849"/>
<use xlink:href="#glyph-0-7" x="200.252686" y="64.541849"/>
<use xlink:href="#glyph-0-11" x="203.845617" y="64.541849"/>
</g>
<g fill="rgb(0%, 0%, 0%)" fill-opacity="1">
<use xlink:href="#glyph-0-24" x="224.151054" y="64.349344"/>
<use xlink:href="#glyph-0-7" x="227.573474" y="64.349344"/>
<use xlink:href="#glyph-0-13" x="231.166405" y="64.349344"/>
</g>
<g fill="rgb(0%, 0%, 0%)" fill-opacity="1">
<use xlink:href="#glyph-0-25" x="261.052523" y="47.224315"/>
<use xlink:href="#glyph-0-18" x="266.362755" y="47.224315"/>
</g>
<g fill="rgb(0%, 0%, 0%)" fill-opacity="1">
<use xlink:href="#glyph-0-26" x="273.439003" y="47.224315"/>
<use xlink:href="#glyph-0-27" x="278.749235" y="47.224315"/>
</g>
<g fill="rgb(0%, 0%, 0%)" fill-opacity="1">
<use xlink:href="#glyph-0-25" x="314.437006" y="18.307844"/>
<use xlink:href="#glyph-0-18" x="319.747238" y="18.307844"/>
</g>
<g fill="rgb(0%, 0%, 0%)" fill-opacity="1">
<use xlink:href="#glyph-0-28" x="326.823487" y="18.307844"/>
<use xlink:href="#glyph-0-29" x="332.133718" y="18.307844"/>
</g>
<g fill="rgb(0%, 0%, 0%)" fill-opacity="1">
<use xlink:href="#glyph-0-6" x="314.222671" y="48.414077"/>
</g>
<g fill="rgb(0%, 0%, 0%)" fill-opacity="1">
<use xlink:href="#glyph-0-22" x="316.116572" y="48.414077"/>
<use xlink:href="#glyph-0-30" x="319.538992" y="48.414077"/>
<use xlink:href="#glyph-0-31" x="322.620388" y="48.414077"/>
<use xlink:href="#glyph-0-32" x="326.042807" y="48.414077"/>
<use xlink:href="#glyph-0-33" x="327.455621" y="48.414077"/>
</g>
<g fill="rgb(0%, 0%, 0%)" fill-opacity="1">
<use xlink:href="#glyph-0-7" x="331.292142" y="48.414077"/>
</g>
<g fill="rgb(0%, 0%, 0%)" fill-opacity="1">
<use xlink:href="#glyph-0-23" x="336.651091" y="48.414077"/>
</g>
<g fill="rgb(0%, 0%, 0%)" fill-opacity="1">
<use xlink:href="#glyph-0-34" x="343.843044" y="48.414077"/>
</g>
<g fill="rgb(0%, 0%, 0%)" fill-opacity="1">
<use xlink:href="#glyph-0-24" x="349.201993" y="48.414077"/>
</g>
<g fill="rgb(78.399658%, 41.19873%, 19.599915%)" fill-opacity="1">
<use xlink:href="#glyph-0-6" x="314.222671" y="80.048444"/>
</g>
<g fill="rgb(78.399658%, 41.19873%, 19.599915%)" fill-opacity="1">
<use xlink:href="#glyph-0-22" x="316.116572" y="80.048444"/>
<use xlink:href="#glyph-0-33" x="319.538992" y="80.048444"/>
<use xlink:href="#glyph-0-31" x="321.615585" y="80.048444"/>
<use xlink:href="#glyph-0-6" x="325.038004" y="80.048444"/>
<use xlink:href="#glyph-0-24" x="327.114597" y="80.048444"/>
</g>
<g fill="rgb(0%, 0%, 0%)" fill-opacity="1">
<use xlink:href="#glyph-0-6" x="332.297326" y="80.048444"/>
</g>
<g fill="rgb(0%, 0%, 0%)" fill-opacity="1">
<use xlink:href="#glyph-0-22" x="334.191227" y="80.048444"/>
<use xlink:href="#glyph-0-30" x="337.613647" y="80.048444"/>
<use xlink:href="#glyph-0-31" x="340.695042" y="80.048444"/>
<use xlink:href="#glyph-0-32" x="344.117462" y="80.048444"/>
<use xlink:href="#glyph-0-33" x="345.530276" y="80.048444"/>
</g>
<g fill="rgb(0%, 0%, 0%)" fill-opacity="1">
<use xlink:href="#glyph-0-6" x="388.345129" y="49.724899"/>
</g>
<g fill="rgb(0%, 0%, 0%)" fill-opacity="1">
<use xlink:href="#glyph-0-22" x="390.23903" y="49.724899"/>
<use xlink:href="#glyph-0-30" x="393.66145" y="49.724899"/>
<use xlink:href="#glyph-0-31" x="396.742846" y="49.724899"/>
<use xlink:href="#glyph-0-32" x="400.165265" y="49.724899"/>
<use xlink:href="#glyph-0-33" x="401.578079" y="49.724899"/>
</g>
<g fill="rgb(0%, 0%, 0%)" fill-opacity="1">
<use xlink:href="#glyph-0-7" x="405.4146" y="49.724899"/>
</g>
<g fill="rgb(0%, 0%, 0%)" fill-opacity="1">
<use xlink:href="#glyph-0-35" x="410.773549" y="49.724899"/>
</g>
<g fill="rgb(0%, 0%, 0%)" fill-opacity="1">
<use xlink:href="#glyph-0-25" x="134.264996" y="103.586676"/>
<use xlink:href="#glyph-0-18" x="139.575227" y="103.586676"/>
<use xlink:href="#glyph-0-36" x="144.885459" y="103.586676"/>
<use xlink:href="#glyph-0-37" x="150.19569" y="103.586676"/>
<use xlink:href="#glyph-0-38" x="155.505922" y="103.586676"/>
</g>
<g fill="rgb(0%, 0%, 0%)" fill-opacity="1">
<use xlink:href="#glyph-0-39" x="162.58217" y="103.586676"/>
</g>
<g fill="rgb(0%, 0%, 0%)" fill-opacity="1">
<use xlink:href="#glyph-0-40" x="169.658419" y="103.586676"/>
<use xlink:href="#glyph-0-41" x="174.968651" y="103.586676"/>
</g>
<g fill="rgb(0%, 0%, 0%)" fill-opacity="1">
<use xlink:href="#glyph-0-35" x="135.510326" y="84.457211"/>
</g>
<g fill="rgb(0%, 0%, 0%)" fill-opacity="1">
<use xlink:href="#glyph-0-4" x="51.222798" y="79.890669"/>
<use xlink:href="#glyph-0-5" x="56.533029" y="79.890669"/>
</g>
<g fill="rgb(78.399658%, 41.19873%, 19.599915%)" fill-opacity="1">
<use xlink:href="#glyph-0-6" x="46.032102" y="94.178726"/>
</g>
<g fill="rgb(0%, 0%, 0%)" fill-opacity="1">
<use xlink:href="#glyph-0-7" x="49.875261" y="94.178726"/>
</g>
<g fill="rgb(0%, 0%, 0%)" fill-opacity="1">
<use xlink:href="#glyph-0-8" x="62.29219" y="94.178726"/>
</g>
<g fill="rgb(0%, 0%, 0%)" fill-opacity="1">
<use xlink:href="#glyph-0-9" x="64.277437" y="94.178726"/>
<use xlink:href="#glyph-0-9" x="67.62069" y="94.178726"/>
<use xlink:href="#glyph-0-10" x="70.963944" y="94.178726"/>
</g>
<g fill="rgb(0%, 0%, 0%)" fill-opacity="1">
<use xlink:href="#glyph-0-11" x="74.611683" y="94.178726"/>
<use xlink:href="#glyph-0-12" x="78.040192" y="94.178726"/>
</g>
<g fill="rgb(0%, 0%, 0%)" fill-opacity="1">
<use xlink:href="#glyph-0-13" x="81.633124" y="94.178726"/>
</g>
<g fill="rgb(0%, 0%, 0%)" fill-opacity="1">
<use xlink:href="#glyph-0-14" x="86.827651" y="94.178726"/>
</g>
<g fill="rgb(0%, 0%, 0%)" fill-opacity="1">
<use xlink:href="#glyph-0-6" x="11.688769" y="94.83761"/>
</g>
<g fill="rgb(0%, 0%, 0%)" fill-opacity="1">
<use xlink:href="#glyph-0-7" x="15.531379" y="94.83761"/>
</g>
<g fill="rgb(0%, 0%, 0%)" fill-opacity="1">
<use xlink:href="#glyph-0-35" x="20.890328" y="94.83761"/>
</g>
</svg>
